<svg xmlns="http://www.w3.org/2000/svg" xmlns:xlink="http://www.w3.org/1999/xlink" width="365" zoomAndPan="magnify" viewBox="0 0 273.75 112.499997" height="150" preserveAspectRatio="xMidYMid meet" version="1.0"><defs><g/><clipPath id="3e44e05979"><path d="M 0.480469 0 L 273.019531 0 L 273.019531 112.003906 L 0.480469 112.003906 Z M 0.480469 0 " clip-rule="nonzero"/></clipPath><clipPath id="040bfd7e75"><path d="M 0.222656 9 L 45 9 L 45 59 L 0.222656 59 Z M 0.222656 9 " clip-rule="nonzero"/></clipPath><clipPath id="245ee9b37c"><rect x="0" width="46" y="0" height="71"/></clipPath><clipPath id="c3837f1f1a"><path d="M 0.144531 9 L 45 9 L 45 59 L 0.144531 59 Z M 0.144531 9 " clip-rule="nonzero"/></clipPath><clipPath id="428f429b4a"><rect x="0" width="46" y="0" height="71"/></clipPath><clipPath id="5518e63cb1"><path d="M 0.527344 9 L 45.921875 9 L 45.921875 59 L 0.527344 59 Z M 0.527344 9 " clip-rule="nonzero"/></clipPath><clipPath id="6d21f56d9f"><rect x="0" width="46" y="0" height="71"/></clipPath><clipPath id="d8fbd13d59"><path d="M 0.4375 9 L 45 9 L 45 59 L 0.4375 59 Z M 0.4375 9 " clip-rule="nonzero"/></clipPath><clipPath id="f3ef14c3bf"><rect x="0" width="46" y="0" height="71"/></clipPath><clipPath id="b5b02d516e"><path d="M 1 9 L 45.835938 9 L 45.835938 59 L 1 59 Z M 1 9 " clip-rule="nonzero"/></clipPath><clipPath id="4d7d2156ad"><rect x="0" width="46" y="0" height="71"/></clipPath><clipPath id="51318792ce"><path d="M 0.367188 9 L 49 9 L 49 59 L 0.367188 59 Z M 0.367188 9 " clip-rule="nonzero"/></clipPath><clipPath id="14902fc028"><rect x="0" width="50" y="0" height="71"/></clipPath><clipPath id="2b07742003"><path d="M 0.597656 10 L 45.515625 10 L 45.515625 60 L 0.597656 60 Z M 0.597656 10 " clip-rule="nonzero"/></clipPath><clipPath id="8160145a1f"><rect x="0" width="46" y="0" height="72"/></clipPath></defs><g clip-path="url(#3e44e05979)"><path fill="#ffffff" d="M 0.480469 0 L 273.019531 0 L 273.019531 112.003906 L 0.480469 112.003906 Z M 0.480469 0 " fill-opacity="1" fill-rule="nonzero"/></g><g transform="matrix(1, 0, 0, 1, 49, 20)"><g clip-path="url(#245ee9b37c)"><g clip-path="url(#040bfd7e75)"><g fill="#000000" fill-opacity="1"><g transform="translate(1.396053, 56.198957)"><g><path d="M 34.007812 1.410156 C 32.5 1.949219 30.976562 2.285156 29.433594 2.421875 C 28.039062 2.542969 27.023438 2.605469 26.394531 2.605469 L 14.722656 2.605469 C 12.519531 2.605469 10.269531 2.121094 7.980469 1.148438 C 5.5625 0.125 3.679688 -1.324219 2.328125 -3.203125 C 1.402344 -4.535156 0.714844 -6.011719 0.265625 -7.640625 C -0.144531 -9.132812 -0.414062 -10.59375 -0.546875 -12.023438 C -0.667969 -13.375 -0.730469 -14.507812 -0.730469 -15.417969 L -0.730469 -43.199219 C -0.730469 -43.917969 -0.539062 -44.546875 -0.15625 -45.078125 C 0.136719 -45.492188 0.511719 -45.804688 0.96875 -46.015625 C 1.363281 -46.199219 1.78125 -46.292969 2.222656 -46.292969 L 18.335938 -46.292969 C 18.777344 -46.292969 19.195312 -46.199219 19.589844 -46.015625 C 20.046875 -45.804688 20.421875 -45.492188 20.714844 -45.078125 C 21.097656 -44.546875 21.289062 -43.917969 21.289062 -43.199219 L 21.289062 -32.679688 C 21.289062 -31.390625 21.277344 -30.023438 21.253906 -28.574219 C 21.230469 -27.167969 21.230469 -25.890625 21.253906 -24.742188 C 21.273438 -23.632812 21.304688 -22.878906 21.34375 -22.484375 L 21.351562 -22.417969 L 21.355469 -22.347656 C 21.398438 -21.460938 21.480469 -20.585938 21.609375 -19.71875 C 21.644531 -19.464844 21.691406 -19.273438 21.742188 -19.148438 L 21.738281 -19.152344 C 21.703125 -19.203125 21.652344 -19.257812 21.59375 -19.308594 C 21.542969 -19.355469 21.449219 -19.398438 21.308594 -19.441406 C 21.039062 -19.523438 20.773438 -19.523438 20.503906 -19.441406 C 20.59375 -19.46875 20.652344 -19.488281 20.679688 -19.503906 C 20.589844 -19.457031 20.492188 -19.382812 20.382812 -19.273438 L 22.226562 -17.433594 L 20.125 -18.972656 C 20.296875 -19.210938 20.386719 -19.53125 20.386719 -19.933594 C 20.386719 -20.949219 20.410156 -21.941406 20.457031 -22.910156 L 23.058594 -22.78125 L 20.453125 -22.78125 C 20.453125 -23.261719 20.464844 -24.144531 20.488281 -25.433594 C 20.511719 -26.691406 20.523438 -28.085938 20.523438 -29.621094 L 20.523438 -34.03125 C 20.523438 -35.476562 20.546875 -36.59375 20.597656 -37.390625 L 23.199219 -37.226562 L 20.59375 -37.226562 L 20.59375 -40.25 C 20.59375 -41.203125 20.570312 -42.144531 20.527344 -43.078125 L 20.523438 -43.140625 L 20.523438 -43.199219 C 20.523438 -43.917969 20.714844 -44.546875 21.097656 -45.078125 C 21.390625 -45.492188 21.765625 -45.804688 22.222656 -46.015625 C 22.613281 -46.199219 23.03125 -46.292969 23.476562 -46.292969 L 40.492188 -46.292969 C 40.933594 -46.292969 41.351562 -46.199219 41.746094 -46.015625 C 42.203125 -45.804688 42.578125 -45.492188 42.871094 -45.078125 C 43.253906 -44.546875 43.445312 -43.917969 43.445312 -43.199219 L 43.445312 -16.808594 C 43.445312 -14.824219 43.335938 -12.734375 43.117188 -10.542969 C 42.859375 -7.9375 42 -5.691406 40.53125 -3.8125 C 39.628906 -2.699219 38.679688 -1.710938 37.6875 -0.847656 C 36.589844 0.105469 35.398438 0.84375 34.117188 1.367188 L 34.0625 1.390625 Z M 32.253906 -3.496094 L 33.128906 -1.042969 L 32.144531 -3.453125 C 32.898438 -3.761719 33.605469 -4.203125 34.269531 -4.78125 C 35.035156 -5.445312 35.753906 -6.191406 36.425781 -7.019531 C 37.273438 -8.105469 37.777344 -9.449219 37.933594 -11.054688 C 38.136719 -13.078125 38.234375 -14.996094 38.234375 -16.808594 L 38.234375 -43.199219 C 38.234375 -42.804688 38.367188 -42.421875 38.632812 -42.050781 C 38.871094 -41.722656 39.171875 -41.46875 39.542969 -41.296875 C 39.847656 -41.152344 40.164062 -41.082031 40.492188 -41.082031 L 23.476562 -41.082031 C 23.804688 -41.082031 24.121094 -41.152344 24.425781 -41.296875 C 24.796875 -41.46875 25.097656 -41.722656 25.335938 -42.050781 C 25.601562 -42.421875 25.734375 -42.804688 25.734375 -43.199219 L 23.128906 -43.199219 L 25.730469 -43.324219 C 25.777344 -42.3125 25.800781 -41.285156 25.800781 -40.25 L 25.800781 -37.148438 L 25.796875 -37.066406 C 25.753906 -36.378906 25.734375 -35.367188 25.734375 -34.03125 L 25.734375 -29.621094 C 25.734375 -28.054688 25.722656 -26.628906 25.699219 -25.339844 C 25.675781 -24.082031 25.664062 -23.226562 25.664062 -22.78125 L 25.664062 -22.714844 L 25.660156 -22.652344 C 25.617188 -21.769531 25.59375 -20.863281 25.59375 -19.933594 C 25.59375 -18.394531 25.171875 -17.046875 24.324219 -15.894531 L 24.207031 -15.730469 L 24.066406 -15.589844 C 23.574219 -15.097656 22.882812 -14.71875 22 -14.453125 C 21.269531 -14.234375 20.539062 -14.234375 19.808594 -14.453125 C 19.207031 -14.632812 18.648438 -14.957031 18.132812 -15.417969 C 17.242188 -16.207031 16.683594 -17.390625 16.453125 -18.964844 C 16.300781 -20 16.203125 -21.042969 16.152344 -22.101562 L 18.753906 -22.226562 L 16.160156 -21.964844 C 16.109375 -22.5 16.070312 -23.390625 16.042969 -24.640625 C 16.019531 -25.851562 16.019531 -27.191406 16.042969 -28.65625 C 16.066406 -30.078125 16.078125 -31.417969 16.078125 -32.679688 L 16.078125 -43.199219 C 16.078125 -42.804688 16.210938 -42.421875 16.476562 -42.050781 C 16.714844 -41.722656 17.015625 -41.46875 17.386719 -41.296875 C 17.691406 -41.152344 18.007812 -41.082031 18.335938 -41.082031 L 2.222656 -41.082031 C 2.550781 -41.082031 2.867188 -41.152344 3.171875 -41.296875 C 3.542969 -41.46875 3.84375 -41.722656 4.082031 -42.050781 C 4.347656 -42.421875 4.480469 -42.804688 4.480469 -43.199219 L 4.480469 -15.417969 C 4.480469 -14.664062 4.535156 -13.691406 4.644531 -12.496094 C 4.746094 -11.375 4.960938 -10.21875 5.289062 -9.027344 C 5.582031 -7.96875 6.003906 -7.042969 6.558594 -6.242188 C 7.339844 -5.15625 8.492188 -4.292969 10.011719 -3.648438 C 11.652344 -2.953125 13.226562 -2.605469 14.722656 -2.605469 L 26.394531 -2.605469 C 26.871094 -2.605469 27.734375 -2.660156 28.976562 -2.769531 C 30.074219 -2.863281 31.167969 -3.105469 32.253906 -3.496094 Z M 32.253906 -3.496094 "/></g></g></g></g><g fill="#ffffff" fill-opacity="1"><g transform="translate(1.396053, 56.198957)"><g><path d="M 33.125 -1.046875 C 31.832031 -0.578125 30.523438 -0.285156 29.203125 -0.171875 C 27.878906 -0.0546875 26.941406 0 26.390625 0 L 14.71875 0 C 12.875 0 10.96875 -0.414062 9 -1.25 C 7.03125 -2.082031 5.507812 -3.238281 4.4375 -4.71875 C 3.695312 -5.78125 3.140625 -6.984375 2.765625 -8.328125 C 2.398438 -9.671875 2.160156 -10.976562 2.046875 -12.25 C 1.929688 -13.53125 1.875 -14.585938 1.875 -15.421875 L 1.875 -43.203125 C 1.875 -43.523438 1.988281 -43.6875 2.21875 -43.6875 L 18.328125 -43.6875 C 18.566406 -43.6875 18.6875 -43.523438 18.6875 -43.203125 C 18.6875 -40.648438 18.6875 -38.101562 18.6875 -35.5625 C 18.6875 -34.914062 18.6875 -33.953125 18.6875 -32.671875 C 18.6875 -31.398438 18.671875 -30.046875 18.640625 -28.609375 C 18.617188 -27.179688 18.617188 -25.875 18.640625 -24.6875 C 18.671875 -23.507812 18.707031 -22.6875 18.75 -22.21875 C 18.800781 -21.25 18.894531 -20.289062 19.03125 -19.34375 C 19.164062 -18.394531 19.441406 -17.734375 19.859375 -17.359375 C 20.328125 -16.941406 20.789062 -16.800781 21.25 -16.9375 C 21.71875 -17.082031 22.039062 -17.25 22.21875 -17.4375 C 22.726562 -18.125 22.984375 -18.953125 22.984375 -19.921875 C 22.984375 -20.898438 23.007812 -21.851562 23.0625 -22.78125 C 23.0625 -23.238281 23.070312 -24.101562 23.09375 -25.375 C 23.113281 -26.65625 23.125 -28.070312 23.125 -29.625 C 23.125 -31.175781 23.125 -32.644531 23.125 -34.03125 C 23.125 -35.414062 23.148438 -36.484375 23.203125 -37.234375 C 23.203125 -38.242188 23.203125 -39.242188 23.203125 -40.234375 C 23.203125 -41.234375 23.175781 -42.222656 23.125 -43.203125 C 23.125 -43.523438 23.238281 -43.6875 23.46875 -43.6875 L 40.484375 -43.6875 C 40.722656 -43.6875 40.84375 -43.523438 40.84375 -43.203125 L 40.84375 -16.8125 C 40.84375 -14.90625 40.738281 -12.898438 40.53125 -10.796875 C 40.320312 -8.691406 39.640625 -6.898438 38.484375 -5.421875 C 37.691406 -4.441406 36.851562 -3.570312 35.96875 -2.8125 C 35.09375 -2.050781 34.144531 -1.460938 33.125 -1.046875 Z M 33.125 -1.046875 "/></g></g></g></g></g><g transform="matrix(1, 0, 0, 1, 13, 20)"><g clip-path="url(#428f429b4a)"><g clip-path="url(#c3837f1f1a)"><g fill="#000000" fill-opacity="1"><g transform="translate(1.372958, 56.198957)"><g><path d="M 43.234375 -18.40625 C 43.234375 -17.832031 43.222656 -16.96875 43.199219 -15.816406 L 43.132812 -12.070312 C 43.109375 -10.738281 43.109375 -9.4375 43.132812 -8.171875 C 43.152344 -6.953125 43.207031 -5.9375 43.292969 -5.132812 L 43.304688 -5 L 43.304688 -0.695312 C 43.304688 0.257812 42.992188 1.042969 42.367188 1.667969 C 41.746094 2.292969 40.957031 2.605469 40.007812 2.605469 L 23.753906 2.605469 C 20.675781 2.605469 18.128906 2.417969 16.121094 2.039062 C 14.050781 1.652344 12.371094 1.15625 11.085938 0.554688 C 9.933594 0.015625 9.003906 -0.457031 8.292969 -0.863281 L 8.214844 -0.910156 C 7.128906 -1.582031 6.074219 -2.351562 5.050781 -3.222656 C 3.921875 -4.183594 3.007812 -5.214844 2.3125 -6.320312 C 0.945312 -8.527344 0.0585938 -10.546875 -0.355469 -12.382812 C -0.742188 -14.121094 -0.9375 -15.851562 -0.9375 -17.570312 L -0.9375 -25.90625 L 4.273438 -25.90625 L 4.273438 -24.578125 L -0.9375 -24.578125 L -0.9375 -25.976562 C -0.9375 -27.644531 -0.8125 -29.261719 -0.558594 -30.835938 C -0.300781 -32.421875 0.0585938 -33.886719 0.523438 -35.230469 L 2.988281 -34.378906 L 0.503906 -35.175781 C 0.980469 -36.664062 1.726562 -38.003906 2.738281 -39.191406 C 3.570312 -40.171875 4.453125 -41.125 5.382812 -42.054688 L 5.425781 -42.101562 L 5.476562 -42.144531 C 6.71875 -43.269531 8.277344 -44.144531 10.148438 -44.769531 C 11.847656 -45.335938 13.675781 -45.734375 15.636719 -45.960938 C 17.519531 -46.183594 19.371094 -46.292969 21.183594 -46.292969 L 39.589844 -46.292969 C 40.449219 -46.292969 41.269531 -45.9375 42.042969 -45.226562 C 42.886719 -44.453125 43.304688 -43.59375 43.304688 -42.644531 L 43.304688 -38.78125 L 43.226562 -38.472656 C 43.207031 -38.386719 43.191406 -38.304688 43.179688 -38.222656 C 43.171875 -38.148438 43.167969 -38.070312 43.167969 -37.992188 L 43.167969 -37.847656 L 43.152344 -37.703125 C 43.117188 -37.398438 43.109375 -36.664062 43.132812 -35.503906 L 43.199219 -31.402344 L 43.269531 -27.621094 L 43.304688 -26.03125 C 43.304688 -25.097656 43.03125 -24.324219 42.480469 -23.710938 C 41.859375 -23.023438 41.058594 -22.675781 40.074219 -22.675781 L 39.929688 -22.675781 L 39.789062 -22.691406 C 39.484375 -22.726562 38.824219 -22.734375 37.800781 -22.710938 L 33.835938 -22.644531 C 32.339844 -22.621094 30.871094 -22.585938 29.425781 -22.539062 C 27.960938 -22.492188 26.675781 -22.457031 25.582031 -22.433594 C 24.472656 -22.410156 23.796875 -22.398438 23.546875 -22.398438 C 23.117188 -22.398438 22.78125 -22.359375 22.535156 -22.285156 C 22.476562 -22.265625 22.433594 -22.246094 22.402344 -22.230469 C 22.410156 -22.234375 22.417969 -22.242188 22.433594 -22.257812 C 22.3125 -22.132812 22.234375 -22.035156 22.203125 -21.972656 C 22.242188 -22.046875 22.261719 -22.15625 22.261719 -22.296875 C 22.261719 -22.15625 22.273438 -22.066406 22.292969 -22.023438 C 22.3125 -22.007812 22.34375 -21.984375 22.386719 -21.957031 C 22.863281 -21.675781 23.175781 -21.527344 23.324219 -21.503906 C 23.777344 -21.441406 24.429688 -21.363281 25.277344 -21.273438 C 25.722656 -21.238281 26.5 -21.21875 27.609375 -21.21875 C 28.773438 -21.21875 30.046875 -21.230469 31.417969 -21.253906 L 35.410156 -21.324219 L 38.59375 -21.390625 L 39.972656 -21.425781 L 40.007812 -21.425781 C 40.695312 -21.425781 41.308594 -21.246094 41.851562 -20.886719 C 42.449219 -20.484375 42.867188 -19.933594 43.101562 -19.230469 L 43.234375 -18.828125 Z M 38.027344 -18.40625 L 40.632812 -18.40625 L 38.160156 -17.582031 C 38.300781 -17.15625 38.570312 -16.8125 38.960938 -16.550781 C 39.292969 -16.328125 39.640625 -16.21875 40.007812 -16.21875 L 40.007812 -18.824219 L 40.074219 -16.21875 L 38.707031 -16.183594 L 35.503906 -16.113281 L 31.507812 -16.042969 C 30.101562 -16.019531 28.804688 -16.007812 27.609375 -16.007812 C 26.355469 -16.007812 25.394531 -16.039062 24.730469 -16.09375 C 23.820312 -16.1875 23.105469 -16.273438 22.585938 -16.347656 C 21.761719 -16.464844 20.800781 -16.847656 19.703125 -17.492188 C 18.832031 -18.015625 18.167969 -18.699219 17.710938 -19.546875 C 17.269531 -20.359375 17.050781 -21.277344 17.050781 -22.296875 C 17.050781 -23.550781 17.59375 -24.742188 18.683594 -25.871094 C 19.796875 -27.03125 21.417969 -27.609375 23.546875 -27.609375 C 23.757812 -27.609375 24.398438 -27.621094 25.46875 -27.644531 C 26.546875 -27.664062 27.8125 -27.699219 29.261719 -27.746094 C 30.734375 -27.792969 32.230469 -27.828125 33.746094 -27.851562 L 37.695312 -27.921875 C 38.945312 -27.945312 39.832031 -27.929688 40.363281 -27.871094 L 40.074219 -25.28125 L 40.074219 -27.886719 C 39.511719 -27.886719 39.019531 -27.65625 38.609375 -27.199219 C 38.265625 -26.816406 38.097656 -26.390625 38.097656 -25.917969 L 38.0625 -27.527344 L 37.992188 -31.316406 L 37.921875 -35.410156 C 37.898438 -36.792969 37.914062 -37.75 37.972656 -38.28125 L 40.5625 -37.992188 L 37.957031 -37.992188 C 37.957031 -38.285156 37.976562 -38.578125 38.011719 -38.871094 C 38.046875 -39.160156 38.101562 -39.449219 38.171875 -39.734375 L 40.699219 -39.101562 L 38.097656 -39.101562 L 38.097656 -42.644531 C 38.097656 -42.234375 38.195312 -41.875 38.394531 -41.558594 C 38.449219 -41.472656 38.492188 -41.414062 38.523438 -41.386719 L 38.519531 -41.386719 C 38.554688 -41.363281 38.597656 -41.335938 38.648438 -41.308594 C 38.921875 -41.15625 39.234375 -41.082031 39.589844 -41.082031 L 21.183594 -41.082031 C 19.570312 -41.082031 17.925781 -40.984375 16.242188 -40.789062 C 14.636719 -40.601562 13.15625 -40.28125 11.796875 -39.828125 C 10.617188 -39.433594 9.671875 -38.917969 8.972656 -38.28125 L 7.222656 -40.214844 L 9.066406 -38.371094 C 8.234375 -37.542969 7.449219 -36.691406 6.707031 -35.820312 C 6.144531 -35.15625 5.730469 -34.414062 5.46875 -33.585938 L 5.457031 -33.558594 L 5.449219 -33.527344 C 5.082031 -32.46875 4.792969 -31.292969 4.585938 -30.007812 C 4.375 -28.707031 4.273438 -27.363281 4.273438 -25.976562 L 4.273438 -24.578125 C 4.273438 -24.234375 4.207031 -23.902344 4.074219 -23.582031 C 3.941406 -23.261719 3.753906 -22.980469 3.507812 -22.738281 C 3.265625 -22.492188 2.984375 -22.304688 2.664062 -22.171875 C 2.34375 -22.039062 2.011719 -21.972656 1.667969 -21.972656 C 1.320312 -21.972656 0.988281 -22.039062 0.671875 -22.171875 C 0.351562 -22.304688 0.0703125 -22.492188 -0.175781 -22.738281 C -0.417969 -22.980469 -0.605469 -23.261719 -0.738281 -23.582031 C -0.871094 -23.902344 -0.9375 -24.234375 -0.9375 -24.578125 L -0.9375 -25.90625 L 4.273438 -25.90625 L 4.273438 -17.570312 C 4.273438 -16.234375 4.425781 -14.886719 4.730469 -13.523438 C 5.011719 -12.257812 5.675781 -10.78125 6.71875 -9.101562 C 7.132812 -8.445312 7.699219 -7.808594 8.425781 -7.195312 C 9.25 -6.492188 10.09375 -5.875 10.957031 -5.339844 L 9.585938 -3.125 L 10.878906 -5.386719 C 11.464844 -5.050781 12.269531 -4.644531 13.292969 -4.164062 C 14.183594 -3.75 15.445312 -3.386719 17.078125 -3.082031 C 18.773438 -2.761719 20.996094 -2.605469 23.753906 -2.605469 L 40.007812 -2.605469 C 39.519531 -2.605469 39.078125 -2.410156 38.683594 -2.015625 C 38.292969 -1.621094 38.097656 -1.183594 38.097656 -0.695312 L 38.097656 -4.863281 L 40.699219 -4.863281 L 38.109375 -4.589844 C 38.007812 -5.542969 37.945312 -6.707031 37.921875 -8.078125 C 37.898438 -9.40625 37.898438 -10.769531 37.921875 -12.167969 L 37.992188 -15.921875 C 38.015625 -17.039062 38.027344 -17.867188 38.027344 -18.40625 Z M 38.027344 -18.40625 "/></g></g></g></g><g fill="#ffffff" fill-opacity="1"><g transform="translate(1.372958, 56.198957)"><g><path d="M 40.625 -18.40625 C 40.625 -17.851562 40.613281 -17.007812 40.59375 -15.875 C 40.570312 -14.738281 40.546875 -13.488281 40.515625 -12.125 C 40.492188 -10.757812 40.492188 -9.425781 40.515625 -8.125 C 40.546875 -6.832031 40.609375 -5.742188 40.703125 -4.859375 L 40.703125 -0.6875 C 40.703125 -0.226562 40.46875 0 40 0 L 23.75 0 C 20.832031 0 18.445312 -0.171875 16.59375 -0.515625 C 14.75 -0.867188 13.28125 -1.296875 12.1875 -1.796875 C 11.101562 -2.304688 10.234375 -2.75 9.578125 -3.125 C 8.609375 -3.726562 7.660156 -4.421875 6.734375 -5.203125 C 5.804688 -5.992188 5.066406 -6.828125 4.515625 -7.703125 C 3.304688 -9.648438 2.53125 -11.398438 2.1875 -12.953125 C 1.84375 -14.503906 1.671875 -16.046875 1.671875 -17.578125 L 1.671875 -25.90625 C 1.671875 -25.90625 1.671875 -25.773438 1.671875 -25.515625 C 1.671875 -25.265625 1.671875 -25.023438 1.671875 -24.796875 C 1.671875 -24.566406 1.671875 -24.519531 1.671875 -24.65625 C 1.671875 -24.789062 1.671875 -25.226562 1.671875 -25.96875 C 1.671875 -27.5 1.785156 -28.984375 2.015625 -30.421875 C 2.242188 -31.859375 2.566406 -33.175781 2.984375 -34.375 C 3.359375 -35.53125 3.9375 -36.570312 4.71875 -37.5 C 5.507812 -38.425781 6.34375 -39.332031 7.21875 -40.21875 C 8.195312 -41.09375 9.445312 -41.785156 10.96875 -42.296875 C 12.5 -42.804688 14.15625 -43.164062 15.9375 -43.375 C 17.71875 -43.582031 19.46875 -43.6875 21.1875 -43.6875 L 39.59375 -43.6875 C 39.769531 -43.6875 40 -43.554688 40.28125 -43.296875 C 40.5625 -43.046875 40.703125 -42.828125 40.703125 -42.640625 L 40.703125 -39.109375 C 40.648438 -38.921875 40.613281 -38.734375 40.59375 -38.546875 C 40.570312 -38.359375 40.5625 -38.171875 40.5625 -37.984375 C 40.507812 -37.566406 40.492188 -36.722656 40.515625 -35.453125 C 40.546875 -34.179688 40.570312 -32.816406 40.59375 -31.359375 C 40.613281 -29.898438 40.632812 -28.632812 40.65625 -27.5625 C 40.6875 -26.5 40.703125 -25.96875 40.703125 -25.96875 C 40.703125 -25.507812 40.492188 -25.28125 40.078125 -25.28125 C 39.660156 -25.320312 38.882812 -25.332031 37.75 -25.3125 C 36.613281 -25.289062 35.289062 -25.269531 33.78125 -25.25 C 32.28125 -25.226562 30.800781 -25.191406 29.34375 -25.140625 C 27.882812 -25.097656 26.609375 -25.0625 25.515625 -25.03125 C 24.429688 -25.007812 23.773438 -25 23.546875 -25 C 22.160156 -25 21.164062 -24.6875 20.5625 -24.0625 C 19.957031 -23.4375 19.65625 -22.847656 19.65625 -22.296875 C 19.65625 -21.140625 20.117188 -20.28125 21.046875 -19.71875 C 21.828125 -19.257812 22.460938 -18.992188 22.953125 -18.921875 C 23.441406 -18.859375 24.125 -18.78125 25 -18.6875 C 25.5625 -18.632812 26.429688 -18.609375 27.609375 -18.609375 C 28.785156 -18.609375 30.066406 -18.617188 31.453125 -18.640625 C 32.847656 -18.671875 34.179688 -18.695312 35.453125 -18.71875 C 36.722656 -18.738281 37.785156 -18.757812 38.640625 -18.78125 C 39.503906 -18.8125 39.957031 -18.828125 40 -18.828125 C 40.320312 -18.828125 40.53125 -18.6875 40.625 -18.40625 Z M 40.625 -18.40625 "/></g></g></g></g></g><g transform="matrix(1, 0, 0, 1, 80, 20)"><g clip-path="url(#6d21f56d9f)"><g clip-path="url(#5518e63cb1)"><g fill="#000000" fill-opacity="1"><g transform="translate(2.273696, 56.198957)"><g><path d="M 42.125 -45.527344 C 42.371094 -45.285156 42.582031 -44.988281 42.753906 -44.644531 L 42.96875 -44.214844 L 43.015625 -43.738281 C 43.117188 -42.695312 43.15625 -41.800781 43.128906 -41.054688 C 43.105469 -40.410156 43.070312 -39.695312 43.023438 -38.910156 C 42.980469 -38.199219 42.957031 -37.105469 42.957031 -35.628906 C 42.957031 -35.148438 43 -34.414062 43.085938 -33.425781 L 43.304688 -30.878906 L 43.304688 -30.769531 C 43.304688 -29.839844 43 -29.070312 42.386719 -28.457031 C 41.773438 -27.84375 41.003906 -27.539062 40.074219 -27.539062 L 40 -27.539062 C 38.402344 -27.585938 36.570312 -27.667969 34.511719 -27.785156 L 28.785156 -28.097656 C 27.054688 -28.1875 25.816406 -28.234375 25.074219 -28.234375 L 25.074219 -30.839844 L 25.144531 -28.234375 C 23.5625 -28.191406 22.203125 -28.066406 21.058594 -27.859375 C 20.914062 -27.832031 20.800781 -27.804688 20.726562 -27.773438 C 20.742188 -27.78125 20.777344 -27.804688 20.832031 -27.851562 C 21.136719 -28.105469 21.289062 -28.429688 21.289062 -28.824219 C 21.289062 -28.753906 21.289062 -28.703125 21.296875 -28.671875 C 21.289062 -28.714844 21.269531 -28.773438 21.234375 -28.847656 C 21.0625 -29.226562 20.761719 -29.5 20.339844 -29.660156 C 20.628906 -29.550781 20.859375 -29.484375 21.019531 -29.464844 L 21.097656 -29.453125 L 21.171875 -29.441406 C 22.195312 -29.25 23.003906 -29.179688 23.605469 -29.230469 C 24.566406 -29.3125 25.851562 -29.300781 27.457031 -29.199219 C 29.117188 -29.101562 30.753906 -28.875 32.367188 -28.519531 C 34.265625 -28.105469 35.960938 -27.273438 37.445312 -26.027344 C 38.195312 -25.382812 38.988281 -24.589844 39.832031 -23.648438 C 40.835938 -22.519531 41.660156 -20.976562 42.308594 -19.011719 C 42.925781 -17.125 43.234375 -14.5625 43.234375 -11.320312 C 43.234375 -10.46875 43.0625 -9.3125 42.710938 -7.863281 C 42.339844 -6.320312 41.632812 -4.75 40.585938 -3.15625 L 40.570312 -3.128906 L 40.550781 -3.101562 C 39.980469 -2.28125 39.128906 -1.425781 37.988281 -0.546875 C 36.820312 0.359375 35.511719 1.042969 34.0625 1.507812 C 32.289062 2.046875 30.523438 2.34375 28.765625 2.394531 C 27.210938 2.441406 26.070312 2.464844 25.351562 2.464844 C 25.183594 2.464844 24.515625 2.476562 23.351562 2.5 C 22.15625 2.523438 20.679688 2.535156 18.925781 2.535156 C 17.199219 2.535156 15.394531 2.546875 13.507812 2.570312 C 11.597656 2.59375 9.792969 2.605469 8.089844 2.605469 L 2.429688 2.605469 C 1.5625 2.605469 0.828125 2.339844 0.230469 1.808594 C -0.457031 1.195312 -0.800781 0.410156 -0.800781 -0.554688 C -0.800781 -1.148438 -0.785156 -1.738281 -0.761719 -2.332031 C -0.738281 -2.921875 -0.699219 -3.515625 -0.652344 -4.105469 C -0.566406 -5.394531 -0.535156 -6.707031 -0.554688 -8.046875 C -0.578125 -9.476562 -0.589844 -10.890625 -0.589844 -12.292969 C -0.589844 -13.28125 -0.246094 -14.082031 0.441406 -14.691406 C 1.121094 -15.296875 1.949219 -15.546875 2.925781 -15.4375 C 3.324219 -15.402344 3.839844 -15.382812 4.480469 -15.382812 C 5.230469 -15.382812 5.925781 -15.371094 6.558594 -15.347656 C 7.128906 -15.324219 7.488281 -15.316406 7.640625 -15.316406 L 7.726562 -15.316406 L 7.8125 -15.308594 C 8.46875 -15.265625 9.375 -15.234375 10.539062 -15.210938 C 11.695312 -15.1875 12.921875 -15.199219 14.21875 -15.242188 C 15.523438 -15.289062 16.746094 -15.355469 17.890625 -15.445312 C 18.894531 -15.523438 19.640625 -15.632812 20.121094 -15.769531 L 20.175781 -15.785156 L 20.234375 -15.800781 C 20.246094 -15.804688 20.253906 -15.804688 20.257812 -15.804688 C 20.242188 -15.800781 20.222656 -15.792969 20.203125 -15.777344 C 20.113281 -15.730469 20.035156 -15.660156 19.960938 -15.574219 C 19.832031 -15.425781 19.769531 -15.296875 19.761719 -15.195312 L 19.769531 -15.289062 C 19.738281 -14.941406 19.839844 -14.609375 20.0625 -14.285156 C 20.246094 -14.023438 20.453125 -13.851562 20.683594 -13.765625 C 20.390625 -13.871094 19.976562 -13.925781 19.449219 -13.925781 C 18.6875 -13.925781 17.925781 -13.894531 17.164062 -13.832031 C 16.257812 -13.753906 15.539062 -13.71875 15.003906 -13.71875 L 15.003906 -16.320312 L 15.164062 -13.722656 C 13.5 -13.617188 11.875 -13.683594 10.28125 -13.917969 C 8.484375 -14.183594 6.796875 -14.839844 5.222656 -15.890625 C 4.058594 -16.648438 3.027344 -17.621094 2.125 -18.8125 C 1.25 -19.972656 0.582031 -21.183594 0.121094 -22.445312 C -0.800781 -24.882812 -1.136719 -27.4375 -0.890625 -30.105469 C -0.65625 -32.664062 -0.015625 -35.097656 1.03125 -37.402344 C 1.691406 -38.835938 2.519531 -40.128906 3.507812 -41.285156 C 4.582031 -42.535156 5.859375 -43.515625 7.347656 -44.230469 C 8.402344 -44.734375 9.496094 -45.183594 10.621094 -45.585938 C 11.945312 -46.054688 13.289062 -46.292969 14.65625 -46.292969 L 41.363281 -46.292969 Z M 38.441406 -41.84375 L 40.285156 -43.6875 L 40.285156 -41.082031 L 14.65625 -41.082031 C 13.890625 -41.082031 13.128906 -40.949219 12.367188 -40.675781 C 11.410156 -40.335938 10.488281 -39.957031 9.601562 -39.53125 C 8.773438 -39.136719 8.058594 -38.589844 7.464844 -37.894531 C 6.789062 -37.105469 6.226562 -36.222656 5.773438 -35.246094 C 4.96875 -33.476562 4.476562 -31.605469 4.296875 -29.628906 C 4.125 -27.757812 4.363281 -25.957031 5.019531 -24.226562 C 5.300781 -23.453125 5.71875 -22.695312 6.28125 -21.957031 C 6.8125 -21.25 7.425781 -20.671875 8.113281 -20.226562 C 9.039062 -19.609375 10.015625 -19.222656 11.042969 -19.074219 C 12.273438 -18.890625 13.539062 -18.839844 14.839844 -18.921875 L 14.921875 -18.925781 L 15.003906 -18.925781 C 15.394531 -18.925781 15.96875 -18.957031 16.730469 -19.023438 C 17.636719 -19.097656 18.542969 -19.136719 19.449219 -19.136719 C 20.582031 -19.136719 21.585938 -18.980469 22.449219 -18.667969 C 23.257812 -18.378906 23.886719 -17.910156 24.335938 -17.265625 C 24.828125 -16.558594 25.035156 -15.757812 24.960938 -14.855469 L 22.363281 -15.070312 L 24.964844 -14.949219 C 24.914062 -13.871094 24.570312 -12.960938 23.9375 -12.207031 C 23.3125 -11.472656 22.480469 -10.980469 21.441406 -10.730469 L 20.835938 -13.265625 L 21.550781 -10.761719 C 20.734375 -10.527344 19.652344 -10.359375 18.296875 -10.253906 C 17.078125 -10.15625 15.777344 -10.085938 14.398438 -10.039062 C 13.007812 -9.988281 11.6875 -9.976562 10.4375 -10 C 9.191406 -10.027344 8.203125 -10.0625 7.464844 -10.113281 L 7.640625 -12.710938 L 7.640625 -10.105469 C 7.421875 -10.105469 6.996094 -10.117188 6.359375 -10.140625 C 5.789062 -10.164062 5.164062 -10.175781 4.480469 -10.175781 C 3.683594 -10.175781 2.972656 -10.203125 2.351562 -10.261719 C 2.910156 -10.199219 3.425781 -10.378906 3.902344 -10.796875 C 4.378906 -11.222656 4.617188 -11.722656 4.617188 -12.292969 C 4.617188 -10.917969 4.628906 -9.53125 4.652344 -8.132812 C 4.675781 -6.648438 4.640625 -5.164062 4.539062 -3.671875 C 4.496094 -3.152344 4.464844 -2.632812 4.441406 -2.113281 C 4.421875 -1.59375 4.410156 -1.074219 4.410156 -0.554688 C 4.410156 -1.148438 4.171875 -1.660156 3.691406 -2.085938 C 3.304688 -2.433594 2.882812 -2.605469 2.429688 -2.605469 L 8.089844 -2.605469 C 9.769531 -2.605469 11.554688 -2.617188 13.441406 -2.640625 C 15.351562 -2.664062 17.179688 -2.675781 18.925781 -2.675781 C 20.644531 -2.675781 22.085938 -2.6875 23.25 -2.707031 C 24.449219 -2.730469 25.148438 -2.742188 25.351562 -2.742188 C 26.019531 -2.742188 27.105469 -2.765625 28.605469 -2.8125 C 29.902344 -2.851562 31.191406 -3.066406 32.476562 -3.453125 C 33.339844 -3.730469 34.113281 -4.132812 34.800781 -4.664062 C 35.511719 -5.21875 36.003906 -5.683594 36.265625 -6.066406 L 38.410156 -4.585938 L 36.230469 -6.011719 C 36.945312 -7.101562 37.417969 -8.125 37.648438 -9.082031 C 37.898438 -10.132812 38.027344 -10.878906 38.027344 -11.320312 C 38.027344 -14.007812 37.804688 -16.027344 37.359375 -17.382812 C 36.9375 -18.660156 36.46875 -19.59375 35.945312 -20.179688 C 35.257812 -20.949219 34.640625 -21.566406 34.09375 -22.035156 C 33.265625 -22.734375 32.316406 -23.199219 31.253906 -23.433594 C 29.902344 -23.726562 28.53125 -23.917969 27.132812 -24 C 25.777344 -24.085938 24.746094 -24.097656 24.039062 -24.039062 C 22.972656 -23.953125 21.703125 -24.042969 20.222656 -24.316406 L 20.699219 -26.878906 L 20.375 -24.292969 C 19.796875 -24.367188 19.167969 -24.53125 18.484375 -24.792969 C 17.578125 -25.136719 16.914062 -25.769531 16.496094 -26.683594 C 16.21875 -27.292969 16.078125 -28.007812 16.078125 -28.824219 C 16.078125 -30.050781 16.550781 -31.058594 17.488281 -31.847656 C 18.160156 -32.40625 19.039062 -32.785156 20.128906 -32.984375 C 21.53125 -33.238281 23.15625 -33.390625 25.003906 -33.441406 L 25.074219 -33.441406 C 25.90625 -33.441406 27.238281 -33.394531 29.070312 -33.300781 L 34.804688 -32.988281 C 36.820312 -32.871094 38.601562 -32.792969 40.152344 -32.746094 L 40.074219 -30.144531 L 40.074219 -32.75 C 39.566406 -32.75 39.105469 -32.546875 38.703125 -32.140625 C 38.296875 -31.738281 38.097656 -31.28125 38.097656 -30.769531 L 40.699219 -30.769531 L 38.105469 -30.546875 L 37.898438 -32.972656 C 37.796875 -34.113281 37.75 -35 37.75 -35.628906 C 37.75 -37.210938 37.773438 -38.410156 37.824219 -39.226562 C 37.867188 -39.96875 37.902344 -40.644531 37.925781 -41.25 C 37.941406 -41.753906 37.910156 -42.410156 37.832031 -43.21875 L 40.421875 -43.480469 L 38.09375 -42.3125 C 38.171875 -42.15625 38.289062 -42 38.441406 -41.84375 Z M 38.441406 -41.84375 "/></g></g></g></g><g fill="#ffffff" fill-opacity="1"><g transform="translate(2.273696, 56.198957)"><g><path d="M 40.28125 -43.6875 C 40.332031 -43.632812 40.378906 -43.566406 40.421875 -43.484375 C 40.515625 -42.554688 40.546875 -41.78125 40.515625 -41.15625 C 40.492188 -40.53125 40.460938 -39.832031 40.421875 -39.0625 C 40.378906 -38.300781 40.359375 -37.15625 40.359375 -35.625 C 40.359375 -35.070312 40.398438 -34.257812 40.484375 -33.1875 C 40.578125 -32.125 40.648438 -31.316406 40.703125 -30.765625 C 40.703125 -30.347656 40.492188 -30.140625 40.078125 -30.140625 C 38.503906 -30.191406 36.695312 -30.273438 34.65625 -30.390625 C 32.613281 -30.503906 30.703125 -30.609375 28.921875 -30.703125 C 27.140625 -30.796875 25.859375 -30.84375 25.078125 -30.84375 C 23.359375 -30.789062 21.863281 -30.648438 20.59375 -30.421875 C 19.320312 -30.191406 18.6875 -29.660156 18.6875 -28.828125 C 18.6875 -27.941406 18.925781 -27.40625 19.40625 -27.21875 C 19.894531 -27.039062 20.328125 -26.925781 20.703125 -26.875 C 21.953125 -26.644531 22.992188 -26.5625 23.828125 -26.625 C 24.660156 -26.695312 25.816406 -26.6875 27.296875 -26.59375 C 28.828125 -26.507812 30.332031 -26.300781 31.8125 -25.96875 C 33.289062 -25.644531 34.609375 -25 35.765625 -24.03125 C 36.410156 -23.476562 37.113281 -22.769531 37.875 -21.90625 C 38.644531 -21.050781 39.296875 -19.8125 39.828125 -18.1875 C 40.359375 -16.570312 40.625 -14.285156 40.625 -11.328125 C 40.625 -10.671875 40.472656 -9.71875 40.171875 -8.46875 C 39.878906 -7.21875 39.289062 -5.921875 38.40625 -4.578125 C 37.988281 -3.984375 37.316406 -3.328125 36.390625 -2.609375 C 35.460938 -1.890625 34.421875 -1.34375 33.265625 -0.96875 C 31.734375 -0.507812 30.203125 -0.253906 28.671875 -0.203125 C 27.148438 -0.160156 26.039062 -0.140625 25.34375 -0.140625 C 25.164062 -0.140625 24.484375 -0.125 23.296875 -0.09375 C 22.117188 -0.0703125 20.660156 -0.0625 18.921875 -0.0625 C 17.191406 -0.0625 15.375 -0.0507812 13.46875 -0.03125 C 11.570312 -0.0078125 9.78125 0 8.09375 0 C 6.40625 0 5.039062 0 4 0 C 2.957031 0 2.4375 0 2.4375 0 C 2.019531 0 1.8125 -0.1875 1.8125 -0.5625 C 1.8125 -1.113281 1.820312 -1.664062 1.84375 -2.21875 C 1.863281 -2.78125 1.894531 -3.335938 1.9375 -3.890625 C 2.03125 -5.273438 2.066406 -6.671875 2.046875 -8.078125 C 2.023438 -9.492188 2.015625 -10.898438 2.015625 -12.296875 C 2.015625 -12.710938 2.222656 -12.894531 2.640625 -12.84375 C 3.148438 -12.800781 3.765625 -12.78125 4.484375 -12.78125 C 5.203125 -12.78125 5.859375 -12.765625 6.453125 -12.734375 C 7.054688 -12.710938 7.453125 -12.703125 7.640625 -12.703125 C 8.335938 -12.660156 9.285156 -12.628906 10.484375 -12.609375 C 11.691406 -12.585938 12.96875 -12.597656 14.3125 -12.640625 C 15.65625 -12.679688 16.914062 -12.75 18.09375 -12.84375 C 19.269531 -12.9375 20.1875 -13.078125 20.84375 -13.265625 C 21.8125 -13.492188 22.316406 -14.097656 22.359375 -15.078125 C 22.410156 -15.628906 22.144531 -16.007812 21.5625 -16.21875 C 20.988281 -16.425781 20.285156 -16.53125 19.453125 -16.53125 C 18.617188 -16.53125 17.785156 -16.492188 16.953125 -16.421875 C 16.117188 -16.359375 15.46875 -16.328125 15 -16.328125 C 13.519531 -16.234375 12.070312 -16.289062 10.65625 -16.5 C 9.25 -16.707031 7.921875 -17.226562 6.671875 -18.0625 C 5.742188 -18.65625 4.921875 -19.425781 4.203125 -20.375 C 3.484375 -21.332031 2.9375 -22.320312 2.5625 -23.34375 C 1.78125 -25.425781 1.492188 -27.597656 1.703125 -29.859375 C 1.910156 -32.128906 2.476562 -34.285156 3.40625 -36.328125 C 3.957031 -37.523438 4.648438 -38.609375 5.484375 -39.578125 C 6.316406 -40.554688 7.3125 -41.320312 8.46875 -41.875 C 9.445312 -42.34375 10.457031 -42.757812 11.5 -43.125 C 12.539062 -43.5 13.59375 -43.6875 14.65625 -43.6875 Z M 40.28125 -43.6875 "/></g></g></g></g></g><g transform="matrix(1, 0, 0, 1, 136, 20)"><g clip-path="url(#f3ef14c3bf)"><g clip-path="url(#d8fbd13d59)"><g fill="#000000" fill-opacity="1"><g transform="translate(1.523756, 56.198957)"><g><path d="M 43.097656 -11.53125 L 43.097656 -7.710938 C 43.097656 -7.367188 43.109375 -6.835938 43.128906 -6.125 C 43.152344 -5.402344 43.1875 -4.625 43.230469 -3.785156 C 43.277344 -2.917969 43.316406 -2.175781 43.339844 -1.558594 L 43.375 -0.605469 L 43.375 -0.554688 C 43.375 0.347656 43.074219 1.101562 42.472656 1.703125 C 41.871094 2.304688 41.117188 2.605469 40.214844 2.605469 L 2.640625 2.605469 C 1.558594 2.605469 0.683594 2.246094 0.0195312 1.527344 C -0.644531 0.8125 -0.9375 -0.0820312 -0.863281 -1.15625 L 1.738281 -0.972656 L -0.867188 -1.078125 C -0.726562 -4.519531 -0.648438 -7.976562 -0.625 -11.441406 L -0.519531 -21.972656 C -0.472656 -25.445312 -0.34375 -28.941406 -0.132812 -32.453125 C 0.0625 -35.746094 -0.078125 -39.015625 -0.5625 -42.261719 C -0.738281 -43.328125 -0.460938 -44.277344 0.277344 -45.105469 C 0.980469 -45.894531 1.859375 -46.292969 2.917969 -46.292969 L 39.9375 -46.292969 C 40.65625 -46.292969 41.292969 -46.082031 41.847656 -45.667969 C 42.375 -45.273438 42.746094 -44.746094 42.964844 -44.09375 L 43.097656 -43.691406 L 43.097656 -43.269531 C 43.097656 -43.171875 43.082031 -42.90625 43.058594 -42.484375 C 43.03125 -42.058594 42.992188 -41.636719 42.9375 -41.210938 L 40.351562 -41.535156 L 42.957031 -41.535156 C 42.957031 -41.253906 42.933594 -40.671875 42.882812 -39.792969 C 42.839844 -38.984375 42.804688 -38.140625 42.785156 -37.265625 C 42.761719 -36.382812 42.75 -35.722656 42.75 -35.28125 C 42.75 -34.878906 42.769531 -34.371094 42.8125 -33.761719 C 42.855469 -33.140625 42.910156 -32.59375 42.972656 -32.113281 L 43.097656 -31.144531 L 43.097656 -30.976562 C 43.097656 -30.011719 42.753906 -29.222656 42.066406 -28.613281 C 41.46875 -28.082031 40.734375 -27.816406 39.867188 -27.816406 L 39.832031 -27.816406 L 38.445312 -27.851562 C 37.566406 -27.875 36.441406 -27.886719 35.074219 -27.886719 L 30.664062 -27.886719 C 29.144531 -27.886719 27.738281 -27.863281 26.449219 -27.816406 C 25.207031 -27.773438 24.253906 -27.710938 23.589844 -27.628906 C 23.164062 -27.570312 22.707031 -27.433594 22.222656 -27.214844 C 22.296875 -27.25 22.371094 -27.316406 22.441406 -27.417969 C 22.476562 -27.46875 22.5 -27.515625 22.519531 -27.5625 L 22.523438 -27.5625 C 22.554688 -27.933594 22.449219 -28.234375 22.203125 -28.464844 C 22.359375 -28.320312 22.511719 -28.214844 22.660156 -28.148438 L 21.601562 -25.769531 L 22.113281 -28.320312 C 22.207031 -28.304688 22.796875 -28.273438 23.886719 -28.230469 C 25.082031 -28.1875 26.519531 -28.164062 28.199219 -28.164062 C 29.902344 -28.164062 31.613281 -28.175781 33.339844 -28.199219 C 35.085938 -28.222656 36.566406 -28.234375 37.785156 -28.234375 L 39.867188 -28.234375 C 40.734375 -28.234375 41.46875 -27.96875 42.066406 -27.4375 C 42.753906 -26.824219 43.097656 -26.039062 43.097656 -25.074219 L 43.097656 -16.808594 C 43.097656 -15.84375 42.753906 -15.054688 42.066406 -14.445312 C 41.46875 -13.914062 40.734375 -13.648438 39.867188 -13.648438 C 39.066406 -13.648438 37.953125 -13.660156 36.523438 -13.683594 C 35.101562 -13.707031 33.628906 -13.742188 32.113281 -13.789062 C 30.617188 -13.832031 29.273438 -13.867188 28.078125 -13.890625 C 26.890625 -13.914062 26.097656 -13.925781 25.699219 -13.925781 L 25.699219 -16.53125 L 25.957031 -13.9375 C 25.410156 -13.882812 24.753906 -13.855469 23.996094 -13.855469 C 23.585938 -13.855469 23.207031 -13.800781 22.851562 -13.695312 C 22.960938 -13.726562 23.042969 -13.796875 23.097656 -13.90625 C 23.066406 -13.851562 23.050781 -13.8125 23.042969 -13.796875 C 23.042969 -13.800781 23.046875 -13.808594 23.050781 -13.820312 C 23.070312 -13.90625 23.074219 -14.003906 23.066406 -14.113281 C 23.039062 -14.386719 22.945312 -14.605469 22.78125 -14.761719 C 23.050781 -14.503906 23.328125 -14.335938 23.621094 -14.265625 L 22.988281 -11.738281 L 23.5 -14.292969 C 23.792969 -14.234375 24.574219 -14.203125 25.835938 -14.203125 C 27.238281 -14.203125 28.839844 -14.238281 30.636719 -14.304688 L 35.910156 -14.515625 C 37.585938 -14.582031 38.859375 -14.640625 39.730469 -14.6875 L 39.796875 -14.691406 L 39.867188 -14.691406 C 40.734375 -14.691406 41.46875 -14.425781 42.066406 -13.894531 C 42.753906 -13.28125 43.097656 -12.496094 43.097656 -11.53125 Z M 37.886719 -11.53125 C 37.886719 -10.933594 38.125 -10.425781 38.605469 -10 C 38.996094 -9.652344 39.414062 -9.480469 39.867188 -9.480469 L 39.867188 -12.085938 L 40.003906 -9.484375 C 39.113281 -9.4375 37.816406 -9.378906 36.113281 -9.308594 L 30.832031 -9.101562 C 28.972656 -9.03125 27.304688 -8.996094 25.835938 -8.996094 C 24.230469 -8.996094 23.109375 -9.058594 22.480469 -9.183594 L 22.417969 -9.195312 L 22.359375 -9.210938 C 21.167969 -9.507812 20.105469 -10.105469 19.171875 -11.007812 C 18.40625 -11.742188 17.976562 -12.613281 17.878906 -13.617188 C 17.796875 -14.496094 17.980469 -15.371094 18.4375 -16.238281 C 19.046875 -17.457031 20.007812 -18.269531 21.320312 -18.671875 C 22.171875 -18.933594 23.0625 -19.066406 23.996094 -19.066406 C 24.582031 -19.066406 25.0625 -19.085938 25.4375 -19.121094 L 25.570312 -19.136719 L 25.699219 -19.136719 C 26.132812 -19.136719 26.957031 -19.125 28.179688 -19.101562 C 29.394531 -19.078125 30.757812 -19.042969 32.273438 -18.996094 C 33.765625 -18.949219 35.210938 -18.914062 36.609375 -18.890625 C 38.007812 -18.867188 39.09375 -18.855469 39.867188 -18.855469 C 39.414062 -18.855469 38.996094 -18.683594 38.605469 -18.339844 C 38.125 -17.914062 37.886719 -17.402344 37.886719 -16.808594 L 37.886719 -25.074219 C 37.886719 -24.480469 38.125 -23.96875 38.605469 -23.542969 C 38.996094 -23.195312 39.414062 -23.023438 39.867188 -23.023438 L 37.785156 -23.023438 C 36.589844 -23.023438 35.132812 -23.011719 33.40625 -22.988281 C 31.660156 -22.964844 29.921875 -22.953125 28.199219 -22.953125 C 26.453125 -22.953125 24.949219 -22.976562 23.691406 -23.027344 C 22.324219 -23.078125 21.457031 -23.140625 21.089844 -23.214844 L 20.804688 -23.269531 L 20.542969 -23.386719 C 19.859375 -23.691406 19.222656 -24.117188 18.636719 -24.667969 C 17.648438 -25.59375 17.21875 -26.75 17.34375 -28.140625 C 17.441406 -28.996094 17.714844 -29.75 18.171875 -30.40625 C 18.648438 -31.085938 19.285156 -31.601562 20.078125 -31.960938 C 21.027344 -32.390625 21.984375 -32.667969 22.945312 -32.796875 C 23.761719 -32.898438 24.871094 -32.976562 26.265625 -33.023438 C 27.617188 -33.070312 29.082031 -33.09375 30.664062 -33.09375 L 35.074219 -33.09375 C 36.484375 -33.09375 37.65625 -33.082031 38.578125 -33.058594 L 39.933594 -33.023438 L 39.867188 -30.421875 L 39.867188 -33.027344 C 39.414062 -33.027344 38.996094 -32.851562 38.605469 -32.507812 C 38.125 -32.082031 37.886719 -31.570312 37.886719 -30.976562 L 40.492188 -30.976562 L 37.910156 -30.640625 L 37.804688 -31.4375 C 37.730469 -32.023438 37.664062 -32.679688 37.617188 -33.402344 C 37.566406 -34.132812 37.539062 -34.761719 37.539062 -35.28125 C 37.539062 -35.769531 37.550781 -36.472656 37.574219 -37.398438 C 37.601562 -38.328125 37.636719 -39.222656 37.683594 -40.082031 C 37.726562 -40.867188 37.75 -41.351562 37.75 -41.535156 L 37.75 -41.695312 L 37.769531 -41.855469 C 37.808594 -42.175781 37.839844 -42.492188 37.859375 -42.808594 C 37.867188 -42.988281 37.878906 -43.125 37.882812 -43.222656 C 37.886719 -43.265625 37.886719 -43.300781 37.886719 -43.324219 C 37.886719 -43.328125 37.886719 -43.332031 37.886719 -43.332031 C 37.886719 -43.3125 37.886719 -43.292969 37.886719 -43.269531 L 40.492188 -43.269531 L 38.019531 -42.445312 C 38.144531 -42.070312 38.378906 -41.753906 38.722656 -41.5 C 39.089844 -41.222656 39.496094 -41.082031 39.9375 -41.082031 L 2.917969 -41.082031 C 3.417969 -41.082031 3.835938 -41.269531 4.167969 -41.644531 C 4.535156 -42.054688 4.675781 -42.519531 4.589844 -43.027344 C 5.125 -39.421875 5.285156 -35.792969 5.066406 -32.140625 C 4.859375 -28.707031 4.734375 -25.300781 4.6875 -21.921875 L 4.585938 -11.40625 C 4.5625 -7.882812 4.480469 -4.371094 4.339844 -0.867188 L 4.335938 -0.828125 L 4.335938 -0.785156 C 4.34375 -0.910156 4.328125 -1.050781 4.285156 -1.207031 C 4.207031 -1.507812 4.058594 -1.777344 3.835938 -2.015625 C 3.613281 -2.253906 3.355469 -2.425781 3.058594 -2.527344 C 2.90625 -2.578125 2.765625 -2.605469 2.640625 -2.605469 L 40.214844 -2.605469 C 39.679688 -2.605469 39.207031 -2.398438 38.789062 -1.980469 C 38.375 -1.566406 38.164062 -1.089844 38.164062 -0.554688 L 40.769531 -0.554688 L 38.167969 -0.457031 L 38.132812 -1.359375 C 38.109375 -1.945312 38.074219 -2.664062 38.03125 -3.503906 C 37.984375 -4.382812 37.949219 -5.199219 37.921875 -5.960938 C 37.898438 -6.730469 37.886719 -7.3125 37.886719 -7.710938 Z M 37.886719 -11.53125 "/></g></g></g></g><g fill="#ffffff" fill-opacity="1"><g transform="translate(1.523756, 56.198957)"><g><path d="M 40.484375 -11.53125 C 40.484375 -10.925781 40.484375 -10.265625 40.484375 -9.546875 C 40.484375 -8.828125 40.484375 -8.210938 40.484375 -7.703125 C 40.484375 -7.335938 40.492188 -6.785156 40.515625 -6.046875 C 40.546875 -5.304688 40.582031 -4.503906 40.625 -3.640625 C 40.675781 -2.785156 40.710938 -2.054688 40.734375 -1.453125 C 40.753906 -0.859375 40.765625 -0.5625 40.765625 -0.5625 C 40.765625 -0.1875 40.582031 0 40.21875 0 L 2.640625 0 C 1.992188 0 1.691406 -0.320312 1.734375 -0.96875 C 1.867188 -4.445312 1.945312 -7.929688 1.96875 -11.421875 C 2 -14.921875 2.035156 -18.429688 2.078125 -21.953125 C 2.128906 -25.378906 2.257812 -28.828125 2.46875 -32.296875 C 2.675781 -35.765625 2.523438 -39.210938 2.015625 -42.640625 C 1.960938 -42.921875 2.03125 -43.164062 2.21875 -43.375 C 2.40625 -43.582031 2.640625 -43.6875 2.921875 -43.6875 L 39.9375 -43.6875 C 40.21875 -43.6875 40.398438 -43.546875 40.484375 -43.265625 C 40.484375 -43.222656 40.472656 -43.015625 40.453125 -42.640625 C 40.429688 -42.273438 40.398438 -41.90625 40.359375 -41.53125 C 40.359375 -41.300781 40.332031 -40.769531 40.28125 -39.9375 C 40.238281 -39.101562 40.203125 -38.234375 40.171875 -37.328125 C 40.148438 -36.429688 40.140625 -35.75 40.140625 -35.28125 C 40.140625 -34.820312 40.160156 -34.253906 40.203125 -33.578125 C 40.253906 -32.910156 40.3125 -32.304688 40.375 -31.765625 C 40.445312 -31.234375 40.484375 -30.96875 40.484375 -30.96875 C 40.484375 -30.601562 40.273438 -30.421875 39.859375 -30.421875 C 39.859375 -30.421875 39.40625 -30.429688 38.5 -30.453125 C 37.601562 -30.472656 36.457031 -30.484375 35.0625 -30.484375 C 33.675781 -30.484375 32.207031 -30.484375 30.65625 -30.484375 C 29.113281 -30.484375 27.679688 -30.457031 26.359375 -30.40625 C 25.035156 -30.363281 24.003906 -30.300781 23.265625 -30.21875 C 22.566406 -30.125 21.859375 -29.910156 21.140625 -29.578125 C 20.429688 -29.253906 20.03125 -28.675781 19.9375 -27.84375 C 19.882812 -27.34375 20.039062 -26.914062 20.40625 -26.5625 C 20.78125 -26.21875 21.175781 -25.953125 21.59375 -25.765625 C 21.832031 -25.722656 22.5625 -25.675781 23.78125 -25.625 C 25.007812 -25.582031 26.476562 -25.5625 28.1875 -25.5625 C 29.90625 -25.5625 31.632812 -25.570312 33.375 -25.59375 C 35.113281 -25.613281 36.582031 -25.625 37.78125 -25.625 C 38.988281 -25.625 39.679688 -25.625 39.859375 -25.625 C 40.273438 -25.625 40.484375 -25.441406 40.484375 -25.078125 L 40.484375 -19.3125 C 40.484375 -18.800781 40.484375 -18.359375 40.484375 -17.984375 C 40.484375 -17.617188 40.484375 -17.226562 40.484375 -16.8125 C 40.484375 -16.4375 40.273438 -16.25 39.859375 -16.25 C 39.078125 -16.25 37.976562 -16.257812 36.5625 -16.28125 C 35.15625 -16.3125 33.695312 -16.347656 32.1875 -16.390625 C 30.6875 -16.429688 29.332031 -16.460938 28.125 -16.484375 C 26.925781 -16.515625 26.117188 -16.53125 25.703125 -16.53125 C 25.234375 -16.476562 24.660156 -16.453125 23.984375 -16.453125 C 23.316406 -16.453125 22.679688 -16.359375 22.078125 -16.171875 C 21.484375 -15.992188 21.046875 -15.628906 20.765625 -15.078125 C 20.304688 -14.191406 20.375 -13.457031 20.96875 -12.875 C 21.570312 -12.300781 22.242188 -11.921875 22.984375 -11.734375 C 23.453125 -11.640625 24.398438 -11.59375 25.828125 -11.59375 C 27.265625 -11.59375 28.894531 -11.628906 30.71875 -11.703125 C 32.550781 -11.773438 34.3125 -11.84375 36 -11.90625 C 37.695312 -11.976562 38.984375 -12.035156 39.859375 -12.078125 C 40.273438 -12.078125 40.484375 -11.894531 40.484375 -11.53125 Z M 40.484375 -11.53125 "/></g></g></g></g></g><g transform="matrix(1, 0, 0, 1, 109, 20)"><g clip-path="url(#4d7d2156ad)"><g clip-path="url(#b5b02d516e)"><g fill="#000000" fill-opacity="1"><g transform="translate(2.049104, 56.198957)"><g><path d="M 43.097656 -43.546875 C 43.097656 -41.738281 43.140625 -39.917969 43.234375 -38.085938 C 43.328125 -36.125 43.328125 -34.175781 43.234375 -32.234375 L 43.09375 -29.558594 C 43.050781 -28.742188 43.050781 -27.917969 43.09375 -27.078125 L 43.097656 -27.011719 L 43.097656 -26.949219 C 43.097656 -26.132812 42.859375 -25.425781 42.386719 -24.835938 C 41.855469 -24.167969 41.144531 -23.78125 40.257812 -23.667969 C 39.390625 -23.5625 38.394531 -23.519531 37.273438 -23.546875 C 36.320312 -23.566406 35.425781 -23.566406 34.585938 -23.546875 C 34.28125 -23.539062 34.046875 -23.519531 33.886719 -23.492188 L 33.882812 -23.492188 C 33.992188 -23.53125 34.105469 -23.589844 34.226562 -23.671875 C 34.273438 -23.699219 34.308594 -23.726562 34.328125 -23.746094 C 34.308594 -23.726562 34.28125 -23.699219 34.242188 -23.65625 C 34.332031 -23.753906 34.394531 -23.847656 34.433594 -23.9375 C 34.4375 -23.945312 34.441406 -23.953125 34.441406 -23.953125 C 34.433594 -23.933594 34.429688 -23.910156 34.421875 -23.882812 L 31.878906 -24.449219 L 34.464844 -24.125 C 34.425781 -23.828125 34.386719 -23.09375 34.34375 -21.921875 C 34.296875 -20.703125 34.277344 -19.242188 34.277344 -17.539062 L 34.277344 -2.640625 C 34.277344 -2.117188 34.28125 -1.714844 34.292969 -1.433594 C 34.296875 -1.324219 34.300781 -1.246094 34.304688 -1.195312 C 34.296875 -1.300781 34.265625 -1.429688 34.210938 -1.585938 L 34.34375 -1.1875 L 34.34375 -0.765625 C 34.34375 0.109375 34.097656 0.851562 33.601562 1.457031 C 32.976562 2.222656 32.148438 2.605469 31.117188 2.605469 L 11.738281 2.605469 C 10.78125 2.605469 9.988281 2.257812 9.367188 1.570312 C 8.882812 1.03125 8.601562 0.363281 8.519531 -0.433594 L 8.507812 -0.566406 L 8.507812 -0.695312 C 8.507812 -1.308594 8.519531 -2.34375 8.542969 -3.792969 C 8.566406 -5.234375 8.601562 -6.863281 8.648438 -8.679688 L 8.785156 -14.0625 L 8.890625 -18.671875 C 8.910156 -19.835938 8.90625 -20.542969 8.875 -20.792969 C 8.765625 -21.613281 8.726562 -22.445312 8.753906 -23.285156 C 8.75 -23.226562 8.761719 -23.183594 8.785156 -23.160156 L 10.625 -25.003906 L 8.894531 -23.058594 C 8.746094 -23.191406 8.597656 -23.28125 8.449219 -23.332031 C 8.152344 -23.429688 7.851562 -23.492188 7.542969 -23.519531 C 7.1875 -23.558594 6.640625 -23.578125 5.902344 -23.578125 L 2.640625 -23.578125 C 1.65625 -23.578125 0.855469 -23.925781 0.234375 -24.617188 C -0.316406 -25.226562 -0.589844 -25.980469 -0.589844 -26.878906 L -0.589844 -27.816406 C -0.589844 -28.414062 -0.601562 -29.082031 -0.625 -29.820312 C -0.644531 -30.515625 -0.675781 -31.035156 -0.714844 -31.382812 L -0.722656 -31.484375 C -0.769531 -32.164062 -0.820312 -33.128906 -0.867188 -34.386719 C -0.914062 -35.644531 -0.9375 -36.953125 -0.9375 -38.304688 L -0.9375 -43.269531 C -0.9375 -43.75 -0.832031 -44.199219 -0.625 -44.617188 C -0.390625 -45.082031 -0.0585938 -45.460938 0.378906 -45.75 C 0.921875 -46.113281 1.558594 -46.292969 2.292969 -46.292969 L 40.96875 -46.292969 L 41.585938 -45.980469 C 42.023438 -45.765625 42.375 -45.453125 42.640625 -45.054688 C 42.945312 -44.597656 43.097656 -44.097656 43.097656 -43.546875 Z M 37.886719 -43.546875 C 37.886719 -43.046875 38.027344 -42.585938 38.308594 -42.164062 C 38.550781 -41.796875 38.867188 -41.515625 39.257812 -41.324219 L 39.1875 -41.359375 L 40.351562 -43.6875 L 40.351562 -41.082031 L 2.292969 -41.082031 C 2.609375 -41.082031 2.933594 -41.195312 3.269531 -41.414062 C 3.601562 -41.636719 3.855469 -41.925781 4.035156 -42.289062 C 4.191406 -42.601562 4.273438 -42.929688 4.273438 -43.269531 L 4.273438 -38.304688 C 4.273438 -37.015625 4.292969 -35.777344 4.339844 -34.582031 C 4.382812 -33.382812 4.429688 -32.476562 4.472656 -31.855469 L 1.875 -31.671875 L 4.464844 -31.960938 C 4.519531 -31.472656 4.558594 -30.8125 4.582031 -29.980469 C 4.605469 -29.1875 4.617188 -28.46875 4.617188 -27.816406 L 4.617188 -26.878906 C 4.617188 -27.3125 4.449219 -27.722656 4.105469 -28.101562 C 3.695312 -28.558594 3.203125 -28.789062 2.640625 -28.789062 L 5.902344 -28.789062 C 6.832031 -28.789062 7.535156 -28.761719 8.015625 -28.710938 C 8.726562 -28.644531 9.417969 -28.5 10.097656 -28.273438 C 10.921875 -28 11.675781 -27.558594 12.355469 -26.949219 L 12.414062 -26.898438 L 12.46875 -26.84375 C 13.511719 -25.804688 14.007812 -24.558594 13.960938 -23.109375 C 13.941406 -22.5625 13.96875 -22.003906 14.042969 -21.4375 C 14.105469 -20.945312 14.125 -19.984375 14.097656 -18.554688 L 13.996094 -13.929688 L 13.855469 -8.546875 C 13.808594 -6.75 13.773438 -5.136719 13.75 -3.707031 C 13.730469 -2.289062 13.71875 -1.28125 13.71875 -0.695312 L 11.113281 -0.695312 L 13.703125 -0.953125 C 13.671875 -1.289062 13.515625 -1.609375 13.238281 -1.917969 C 12.828125 -2.375 12.324219 -2.605469 11.738281 -2.605469 L 31.117188 -2.605469 C 30.5 -2.605469 29.984375 -2.351562 29.570312 -1.839844 C 29.28125 -1.488281 29.136719 -1.128906 29.136719 -0.765625 L 31.742188 -0.765625 L 29.269531 0.0585938 C 29.132812 -0.347656 29.066406 -1.246094 29.066406 -2.640625 L 29.066406 -17.539062 C 29.066406 -19.304688 29.089844 -20.832031 29.136719 -22.113281 C 29.1875 -23.441406 29.238281 -24.324219 29.296875 -24.769531 L 29.308594 -24.894531 L 29.335938 -25.011719 C 29.527344 -25.871094 29.863281 -26.570312 30.351562 -27.117188 C 30.683594 -27.492188 31.011719 -27.789062 31.339844 -28.003906 C 32.03125 -28.46875 33.070312 -28.71875 34.449219 -28.753906 C 35.375 -28.777344 36.355469 -28.777344 37.394531 -28.753906 C 38.261719 -28.734375 39 -28.761719 39.613281 -28.839844 C 39.097656 -28.773438 38.667969 -28.523438 38.320312 -28.089844 C 38.03125 -27.730469 37.886719 -27.347656 37.886719 -26.949219 L 40.492188 -26.949219 L 37.890625 -26.820312 C 37.839844 -27.832031 37.839844 -28.835938 37.890625 -29.828125 L 38.03125 -32.496094 C 38.117188 -34.261719 38.117188 -36.039062 38.03125 -37.828125 C 37.933594 -39.746094 37.886719 -41.652344 37.886719 -43.546875 Z M 37.886719 -43.546875 "/></g></g></g></g><g fill="#ffffff" fill-opacity="1"><g transform="translate(2.049104, 56.198957)"><g><path d="M 40.484375 -43.546875 C 40.484375 -41.691406 40.53125 -39.828125 40.625 -37.953125 C 40.71875 -36.078125 40.71875 -34.210938 40.625 -32.359375 C 40.582031 -31.484375 40.535156 -30.59375 40.484375 -29.6875 C 40.441406 -28.789062 40.441406 -27.878906 40.484375 -26.953125 C 40.484375 -26.535156 40.300781 -26.300781 39.9375 -26.25 C 39.195312 -26.15625 38.328125 -26.117188 37.328125 -26.140625 C 36.335938 -26.171875 35.398438 -26.171875 34.515625 -26.140625 C 33.640625 -26.117188 33.0625 -26.019531 32.78125 -25.84375 C 32.644531 -25.75 32.484375 -25.597656 32.296875 -25.390625 C 32.109375 -25.179688 31.96875 -24.867188 31.875 -24.453125 C 31.832031 -24.078125 31.785156 -23.265625 31.734375 -22.015625 C 31.691406 -20.765625 31.671875 -19.269531 31.671875 -17.53125 C 31.671875 -15.800781 31.671875 -14 31.671875 -12.125 C 31.671875 -10.25 31.671875 -8.476562 31.671875 -6.8125 C 31.671875 -5.144531 31.671875 -3.753906 31.671875 -2.640625 C 31.671875 -1.523438 31.691406 -0.898438 31.734375 -0.765625 C 31.734375 -0.253906 31.523438 0 31.109375 0 L 11.734375 0 C 11.367188 0 11.160156 -0.226562 11.109375 -0.6875 C 11.109375 -1.289062 11.117188 -2.3125 11.140625 -3.75 C 11.171875 -5.1875 11.207031 -6.804688 11.25 -8.609375 C 11.300781 -10.421875 11.347656 -12.21875 11.390625 -14 C 11.429688 -15.78125 11.460938 -17.316406 11.484375 -18.609375 C 11.515625 -19.910156 11.503906 -20.742188 11.453125 -21.109375 C 11.367188 -21.804688 11.335938 -22.5 11.359375 -23.1875 C 11.378906 -23.882812 11.132812 -24.488281 10.625 -25 C 10.207031 -25.375 9.753906 -25.640625 9.265625 -25.796875 C 8.785156 -25.960938 8.289062 -26.066406 7.78125 -26.109375 C 7.363281 -26.160156 6.738281 -26.1875 5.90625 -26.1875 C 5.070312 -26.1875 4.316406 -26.1875 3.640625 -26.1875 C 2.972656 -26.1875 2.640625 -26.1875 2.640625 -26.1875 C 2.222656 -26.1875 2.015625 -26.414062 2.015625 -26.875 C 2.015625 -26.875 2.015625 -27.1875 2.015625 -27.8125 C 2.015625 -28.4375 2 -29.128906 1.96875 -29.890625 C 1.945312 -30.660156 1.914062 -31.253906 1.875 -31.671875 C 1.832031 -32.316406 1.785156 -33.253906 1.734375 -34.484375 C 1.691406 -35.710938 1.671875 -36.984375 1.671875 -38.296875 C 1.671875 -39.617188 1.671875 -40.753906 1.671875 -41.703125 C 1.671875 -42.648438 1.671875 -43.171875 1.671875 -43.265625 C 1.671875 -43.546875 1.878906 -43.6875 2.296875 -43.6875 L 40.359375 -43.6875 C 40.359375 -43.6875 40.378906 -43.671875 40.421875 -43.640625 C 40.460938 -43.617188 40.484375 -43.585938 40.484375 -43.546875 Z M 40.484375 -43.546875 "/></g></g></g></g></g><g transform="matrix(1, 0, 0, 1, 170, 20)"><g clip-path="url(#14902fc028)"><g clip-path="url(#51318792ce)"><g fill="#000000" fill-opacity="1"><g transform="translate(1.465193, 56.198957)"><g><path d="M 46.847656 -20.976562 C 46.847656 -20.199219 46.859375 -19.019531 46.882812 -17.4375 C 46.90625 -15.847656 46.941406 -14.082031 46.984375 -12.148438 C 47.03125 -10.214844 47.089844 -8.363281 47.15625 -6.59375 C 47.226562 -4.796875 47.273438 -3.308594 47.296875 -2.136719 L 47.332031 -0.398438 C 47.332031 0.230469 47.191406 0.78125 46.910156 1.253906 C 46.652344 1.679688 46.308594 2.015625 45.875 2.253906 C 45.457031 2.488281 45.003906 2.605469 44.519531 2.605469 L 30.074219 2.605469 C 29.148438 2.605469 28.398438 2.25 27.832031 1.539062 C 27.40625 1.007812 27.191406 0.378906 27.191406 -0.347656 L 27.191406 -0.410156 C 27.238281 -2.300781 27.226562 -4.160156 27.160156 -5.980469 C 27.089844 -7.886719 27.050781 -9.921875 27.050781 -12.085938 C 27.050781 -11.816406 27.136719 -11.546875 27.304688 -11.277344 C 27.503906 -10.964844 27.757812 -10.746094 28.074219 -10.613281 C 28.28125 -10.53125 28.503906 -10.484375 28.753906 -10.480469 C 29.183594 -10.472656 29.585938 -10.585938 29.960938 -10.816406 C 30.289062 -11.019531 30.542969 -11.285156 30.71875 -11.609375 C 30.804688 -11.765625 30.863281 -11.917969 30.890625 -12.058594 L 28.335938 -12.570312 L 30.902344 -12.117188 C 30.492188 -9.78125 30.148438 -7.675781 29.875 -5.804688 C 29.589844 -3.875 29.261719 -1.878906 28.886719 0.1875 L 28.871094 0.273438 L 28.851562 0.355469 C 28.710938 0.914062 28.449219 1.386719 28.0625 1.773438 C 27.507812 2.328125 26.835938 2.605469 26.046875 2.605469 L 19.515625 2.605469 C 19.113281 2.605469 18.730469 2.523438 18.367188 2.363281 C 17.929688 2.167969 17.566406 1.878906 17.277344 1.492188 C 16.894531 0.984375 16.703125 0.394531 16.703125 -0.277344 L 19.308594 -0.277344 L 16.765625 0.28125 C 16.320312 -1.742188 16.023438 -3.839844 15.875 -6.003906 C 15.746094 -7.917969 15.484375 -9.785156 15.09375 -11.609375 C 15.09375 -11.621094 15.089844 -11.632812 15.089844 -11.636719 C 15.09375 -11.625 15.097656 -11.609375 15.105469 -11.589844 C 15.148438 -11.488281 15.210938 -11.382812 15.296875 -11.273438 C 15.648438 -10.832031 16.109375 -10.59375 16.691406 -10.5625 C 17.046875 -10.539062 17.394531 -10.613281 17.730469 -10.777344 C 18.101562 -10.957031 18.390625 -11.21875 18.605469 -11.558594 C 18.722656 -11.746094 18.800781 -11.933594 18.839844 -12.125 C 18.847656 -12.164062 18.855469 -12.195312 18.855469 -12.226562 L 18.855469 -12.222656 L 16.253906 -12.222656 L 18.855469 -12.292969 C 18.90625 -10.496094 18.84375 -8.441406 18.675781 -6.132812 C 18.519531 -3.972656 18.441406 -2.042969 18.441406 -0.347656 C 18.441406 0.25 18.300781 0.78125 18.015625 1.253906 C 17.761719 1.679688 17.417969 2.015625 16.984375 2.253906 C 16.5625 2.488281 16.113281 2.605469 15.628906 2.605469 L 2.082031 2.605469 C 1.15625 2.605469 0.410156 2.25 -0.160156 1.539062 C -0.585938 1.007812 -0.800781 0.378906 -0.800781 -0.347656 L -0.800781 -0.816406 L -0.796875 -0.867188 C -0.703125 -3.164062 -0.636719 -5.78125 -0.589844 -8.722656 L -0.484375 -17.742188 L -0.453125 -26.332031 C -0.453125 -29 -0.464844 -31.246094 -0.484375 -33.0625 L -0.519531 -36.4375 C -0.519531 -37.546875 -0.53125 -38.648438 -0.554688 -39.742188 C -0.578125 -40.871094 -0.589844 -42.023438 -0.589844 -43.199219 L -0.589844 -43.339844 C -0.589844 -44.066406 -0.378906 -44.695312 0.0507812 -45.226562 C 0.617188 -45.9375 1.363281 -46.292969 2.292969 -46.292969 L 21.253906 -46.292969 C 21.738281 -46.292969 22.191406 -46.171875 22.609375 -45.929688 C 22.941406 -45.742188 23.226562 -45.492188 23.457031 -45.179688 C 23.703125 -44.855469 23.878906 -44.472656 23.988281 -44.042969 L 24.027344 -43.882812 L 24.046875 -43.726562 C 24.285156 -41.761719 24.453125 -39.777344 24.550781 -37.769531 C 24.636719 -35.96875 24.847656 -34.28125 25.1875 -32.707031 L 25.203125 -32.648438 L 25.210938 -32.585938 C 25.160156 -32.898438 25.027344 -33.1875 24.8125 -33.453125 C 24.582031 -33.734375 24.308594 -33.933594 23.984375 -34.050781 C 23.738281 -34.140625 23.453125 -34.140625 23.121094 -34.058594 L 23.753906 -31.53125 L 22.785156 -33.949219 C 22.855469 -33.980469 22.914062 -34.003906 22.957031 -34.023438 C 22.964844 -34.027344 22.972656 -34.03125 22.976562 -34.03125 C 22.964844 -34.027344 22.949219 -34.019531 22.933594 -34.007812 C 22.503906 -33.75 22.1875 -33.402344 21.988281 -32.96875 C 21.9375 -32.859375 21.902344 -32.757812 21.882812 -32.671875 C 21.894531 -32.722656 21.90625 -32.84375 21.917969 -33.039062 L 24.519531 -32.851562 L 21.914062 -32.851562 C 21.914062 -33.285156 21.960938 -34.179688 22.058594 -35.539062 C 22.152344 -36.867188 22.285156 -38.296875 22.449219 -39.832031 C 22.613281 -41.359375 22.765625 -42.660156 22.90625 -43.746094 L 22.925781 -43.894531 L 22.964844 -44.042969 C 23.101562 -44.601562 23.367188 -45.074219 23.753906 -45.460938 C 24.308594 -46.015625 24.980469 -46.292969 25.769531 -46.292969 L 44.382812 -46.292969 C 45.308594 -46.292969 46.054688 -45.9375 46.625 -45.226562 C 47.050781 -44.695312 47.265625 -44.066406 47.265625 -43.339844 C 47.265625 -39.601562 47.195312 -35.855469 47.054688 -32.09375 C 46.917969 -28.398438 46.847656 -24.695312 46.847656 -20.976562 Z M 41.636719 -20.976562 C 41.636719 -24.757812 41.707031 -28.53125 41.847656 -32.289062 C 41.984375 -35.984375 42.054688 -39.667969 42.054688 -43.339844 C 42.054688 -42.847656 42.222656 -42.390625 42.554688 -41.972656 C 43.03125 -41.378906 43.640625 -41.082031 44.382812 -41.082031 L 25.769531 -41.082031 C 26.417969 -41.082031 26.972656 -41.3125 27.4375 -41.777344 C 27.730469 -42.070312 27.921875 -42.402344 28.015625 -42.777344 L 25.488281 -43.410156 L 28.074219 -43.074219 C 27.9375 -42.027344 27.789062 -40.761719 27.628906 -39.277344 C 27.46875 -37.800781 27.34375 -36.433594 27.253906 -35.167969 C 27.167969 -33.933594 27.121094 -33.160156 27.121094 -32.851562 L 27.121094 -32.757812 L 27.117188 -32.667969 C 27.082031 -32.210938 27.03125 -31.832031 26.960938 -31.523438 C 26.757812 -30.621094 26.308594 -29.960938 25.613281 -29.542969 C 25.378906 -29.402344 25.082031 -29.257812 24.722656 -29.113281 L 24.558594 -29.046875 L 24.386719 -29.003906 C 23.683594 -28.832031 22.957031 -28.878906 22.203125 -29.152344 C 21.625 -29.363281 21.148438 -29.703125 20.769531 -30.167969 C 20.402344 -30.617188 20.171875 -31.136719 20.074219 -31.730469 L 22.640625 -32.15625 L 20.097656 -31.605469 C 19.695312 -33.460938 19.445312 -35.433594 19.347656 -37.519531 C 19.257812 -39.402344 19.101562 -41.257812 18.875 -43.09375 L 21.460938 -43.410156 L 18.933594 -42.777344 C 18.996094 -42.53125 19.117188 -42.289062 19.292969 -42.054688 C 19.488281 -41.789062 19.734375 -41.574219 20.027344 -41.410156 C 20.40625 -41.191406 20.816406 -41.082031 21.253906 -41.082031 L 2.292969 -41.082031 C 3.035156 -41.082031 3.640625 -41.378906 4.117188 -41.972656 C 4.453125 -42.390625 4.617188 -42.847656 4.617188 -43.339844 L 4.617188 -43.199219 C 4.617188 -42.0625 4.628906 -40.945312 4.652344 -39.851562 C 4.675781 -38.722656 4.6875 -37.601562 4.6875 -36.492188 L 4.722656 -33.128906 C 4.746094 -31.289062 4.757812 -29.015625 4.757812 -26.3125 L 4.722656 -17.679688 L 4.617188 -8.640625 C 4.570312 -5.65625 4.5 -2.996094 4.410156 -0.660156 L 1.804688 -0.765625 L 4.410156 -0.765625 L 4.410156 -0.347656 C 4.410156 -0.839844 4.242188 -1.296875 3.910156 -1.714844 C 3.433594 -2.308594 2.824219 -2.605469 2.082031 -2.605469 L 15.628906 -2.605469 C 15.210938 -2.605469 14.820312 -2.503906 14.453125 -2.296875 C 14.074219 -2.085938 13.773438 -1.796875 13.550781 -1.425781 C 13.335938 -1.074219 13.230469 -0.710938 13.230469 -0.347656 C 13.230469 -2.171875 13.3125 -4.222656 13.480469 -6.511719 C 13.636719 -8.644531 13.691406 -10.527344 13.648438 -12.152344 L 13.648438 -12.222656 C 13.648438 -13.050781 13.832031 -13.753906 14.195312 -14.332031 C 14.507812 -14.828125 14.921875 -15.203125 15.4375 -15.453125 C 15.921875 -15.691406 16.441406 -15.792969 16.996094 -15.761719 C 17.96875 -15.703125 18.761719 -15.289062 19.378906 -14.511719 C 19.765625 -14.023438 20.035156 -13.421875 20.1875 -12.699219 C 20.632812 -10.632812 20.925781 -8.519531 21.074219 -6.359375 C 21.203125 -4.449219 21.464844 -2.609375 21.851562 -0.835938 L 21.914062 -0.558594 L 21.914062 -0.277344 C 21.914062 -0.765625 21.757812 -1.214844 21.445312 -1.632812 C 21.191406 -1.96875 20.871094 -2.226562 20.484375 -2.398438 C 20.171875 -2.535156 19.851562 -2.605469 19.515625 -2.605469 L 26.046875 -2.605469 C 25.394531 -2.605469 24.839844 -2.375 24.378906 -1.910156 C 24.082031 -1.617188 23.890625 -1.285156 23.796875 -0.910156 L 26.324219 -0.277344 L 23.761719 -0.742188 C 24.125 -2.75 24.445312 -4.691406 24.71875 -6.558594 C 25 -8.480469 25.351562 -10.636719 25.773438 -13.023438 L 25.777344 -13.054688 L 25.785156 -13.082031 C 25.976562 -14.054688 26.457031 -14.773438 27.21875 -15.246094 C 28.09375 -15.789062 29.042969 -15.851562 30.058594 -15.429688 C 30.769531 -15.140625 31.320312 -14.679688 31.714844 -14.054688 C 32.078125 -13.472656 32.261719 -12.816406 32.261719 -12.085938 C 32.261719 -9.988281 32.296875 -8.015625 32.363281 -6.171875 C 32.4375 -4.246094 32.449219 -2.28125 32.398438 -0.285156 L 29.796875 -0.347656 L 32.402344 -0.347656 C 32.402344 -0.839844 32.234375 -1.296875 31.898438 -1.714844 C 31.425781 -2.308594 30.816406 -2.605469 30.074219 -2.605469 L 44.519531 -2.605469 C 44.105469 -2.605469 43.714844 -2.503906 43.347656 -2.296875 C 42.964844 -2.085938 42.664062 -1.796875 42.445312 -1.425781 C 42.230469 -1.074219 42.125 -0.695312 42.125 -0.296875 L 42.089844 -2.03125 C 42.066406 -3.171875 42.023438 -4.625 41.953125 -6.394531 C 41.882812 -8.1875 41.824219 -10.066406 41.777344 -12.023438 C 41.730469 -13.976562 41.695312 -15.753906 41.671875 -17.359375 C 41.648438 -18.96875 41.636719 -20.175781 41.636719 -20.976562 Z M 41.636719 -20.976562 "/></g></g></g></g><g fill="#ffffff" fill-opacity="1"><g transform="translate(1.465193, 56.198957)"><g><path d="M 44.234375 -20.96875 C 44.234375 -20.1875 44.242188 -18.992188 44.265625 -17.390625 C 44.296875 -15.796875 44.332031 -14.023438 44.375 -12.078125 C 44.425781 -10.140625 44.484375 -8.273438 44.546875 -6.484375 C 44.617188 -4.703125 44.664062 -3.234375 44.6875 -2.078125 C 44.71875 -0.921875 44.734375 -0.34375 44.734375 -0.34375 C 44.734375 -0.113281 44.660156 0 44.515625 0 L 30.078125 0 C 29.890625 0 29.796875 -0.113281 29.796875 -0.34375 C 29.835938 -2.289062 29.820312 -4.203125 29.75 -6.078125 C 29.6875 -7.953125 29.65625 -9.953125 29.65625 -12.078125 C 29.65625 -12.546875 29.457031 -12.859375 29.0625 -13.015625 C 28.664062 -13.179688 28.425781 -13.035156 28.34375 -12.578125 C 27.925781 -10.210938 27.578125 -8.078125 27.296875 -6.171875 C 27.015625 -4.273438 26.691406 -2.3125 26.328125 -0.28125 C 26.273438 -0.09375 26.179688 0 26.046875 0 L 19.515625 0 C 19.378906 0 19.3125 -0.09375 19.3125 -0.28125 C 18.894531 -2.175781 18.613281 -4.140625 18.46875 -6.171875 C 18.332031 -8.210938 18.054688 -10.207031 17.640625 -12.15625 C 17.503906 -12.800781 17.238281 -13.132812 16.84375 -13.15625 C 16.445312 -13.1875 16.25 -12.875 16.25 -12.21875 C 16.300781 -10.507812 16.242188 -8.539062 16.078125 -6.3125 C 15.910156 -4.09375 15.828125 -2.101562 15.828125 -0.34375 C 15.828125 -0.113281 15.757812 0 15.625 0 L 2.078125 0 C 1.898438 0 1.8125 -0.113281 1.8125 -0.34375 L 1.8125 -0.765625 C 1.894531 -3.078125 1.957031 -5.710938 2 -8.671875 C 2.050781 -11.640625 2.085938 -14.648438 2.109375 -17.703125 C 2.140625 -20.765625 2.15625 -23.632812 2.15625 -26.3125 C 2.15625 -29 2.140625 -31.257812 2.109375 -33.09375 C 2.085938 -34.925781 2.078125 -36.050781 2.078125 -36.46875 C 2.078125 -37.570312 2.066406 -38.679688 2.046875 -39.796875 C 2.023438 -40.910156 2.015625 -42.046875 2.015625 -43.203125 C 2.015625 -43.242188 2.015625 -43.289062 2.015625 -43.34375 C 2.015625 -43.570312 2.109375 -43.6875 2.296875 -43.6875 L 21.25 -43.6875 C 21.34375 -43.6875 21.414062 -43.59375 21.46875 -43.40625 C 21.695312 -41.507812 21.859375 -39.585938 21.953125 -37.640625 C 22.046875 -35.703125 22.273438 -33.875 22.640625 -32.15625 C 22.691406 -31.875 22.84375 -31.6875 23.09375 -31.59375 C 23.34375 -31.507812 23.5625 -31.488281 23.75 -31.53125 C 23.976562 -31.625 24.148438 -31.703125 24.265625 -31.765625 C 24.390625 -31.835938 24.472656 -32.195312 24.515625 -32.84375 C 24.515625 -33.21875 24.5625 -34.050781 24.65625 -35.34375 C 24.75 -36.644531 24.875 -38.046875 25.03125 -39.546875 C 25.195312 -41.054688 25.347656 -42.34375 25.484375 -43.40625 C 25.535156 -43.59375 25.628906 -43.6875 25.765625 -43.6875 L 44.375 -43.6875 C 44.5625 -43.6875 44.65625 -43.570312 44.65625 -43.34375 C 44.65625 -39.632812 44.582031 -35.914062 44.4375 -32.1875 C 44.300781 -28.457031 44.234375 -24.71875 44.234375 -20.96875 Z M 44.234375 -20.96875 "/></g></g></g></g></g><g transform="matrix(1, 0, 0, 1, 208, 20)"><g clip-path="url(#8160145a1f)"><g clip-path="url(#2b07742003)"><g fill="#000000" fill-opacity="1"><g transform="translate(1.827611, 56.934404)"><g><path d="M 43.394531 -30.570312 L 43.394531 -16.585938 C 43.394531 -14.46875 43.128906 -12.617188 42.589844 -11.03125 C 42.097656 -9.582031 41.464844 -8.136719 40.695312 -6.695312 C 39.953125 -5.328125 39.042969 -4.121094 37.960938 -3.066406 C 36.933594 -2.066406 35.847656 -1.210938 34.699219 -0.5 C 33.359375 0.324219 32.003906 1.023438 30.632812 1.589844 C 29.066406 2.242188 27.078125 2.566406 24.667969 2.566406 L 15.257812 2.566406 L 15.191406 2.5625 C 12.890625 2.449219 10.730469 1.875 8.703125 0.832031 C 6.773438 -0.160156 5.195312 -1.269531 3.96875 -2.492188 C 3.25 -3.214844 2.515625 -4.210938 1.769531 -5.484375 C 1.054688 -6.699219 0.457031 -7.972656 -0.0195312 -9.296875 C -0.546875 -10.757812 -0.808594 -12.085938 -0.808594 -13.28125 L -0.808594 -30.851562 C -0.808594 -33.214844 -0.425781 -35.320312 0.34375 -37.167969 C 1.097656 -38.992188 2.011719 -40.464844 3.078125 -41.589844 C 4.835938 -43.457031 6.5625 -44.734375 8.253906 -45.417969 C 9.804688 -46.042969 11.65625 -46.488281 13.804688 -46.75 L 14.125 -44.132812 L 12.261719 -45.996094 C 12.714844 -46.449219 13.285156 -46.710938 13.976562 -46.785156 C 14.117188 -46.796875 14.289062 -46.808594 14.488281 -46.8125 C 14.785156 -46.820312 15.203125 -46.816406 15.734375 -46.804688 C 16.699219 -46.78125 17.882812 -46.769531 19.292969 -46.769531 L 27.058594 -46.769531 C 29.167969 -46.769531 31.132812 -46.464844 32.949219 -45.859375 C 34.875 -45.21875 36.609375 -44.152344 38.160156 -42.660156 C 39.722656 -41.210938 40.984375 -39.371094 41.949219 -37.132812 C 42.914062 -34.902344 43.394531 -32.714844 43.394531 -30.570312 Z M 38.125 -30.570312 C 38.125 -31.988281 37.789062 -33.476562 37.113281 -35.042969 C 36.4375 -36.601562 35.570312 -37.875 34.503906 -38.863281 C 33.527344 -39.804688 32.453125 -40.472656 31.28125 -40.859375 C 30.007812 -41.285156 28.597656 -41.5 27.058594 -41.5 L 19.292969 -41.5 C 17.839844 -41.5 16.613281 -41.511719 15.609375 -41.535156 C 15.15625 -41.546875 14.824219 -41.546875 14.605469 -41.542969 C 14.566406 -41.542969 14.535156 -41.542969 14.511719 -41.539062 L 14.523438 -41.542969 C 15.070312 -41.597656 15.558594 -41.839844 15.988281 -42.269531 L 15.347656 -41.628906 L 14.445312 -41.519531 C 12.753906 -41.3125 11.347656 -40.984375 10.226562 -40.53125 C 9.25 -40.136719 8.140625 -39.28125 6.902344 -37.964844 C 6.28125 -37.308594 5.71875 -36.371094 5.210938 -35.148438 C 4.710938 -33.949219 4.460938 -32.515625 4.460938 -30.851562 L 4.460938 -13.28125 C 4.460938 -12.699219 4.621094 -11.964844 4.9375 -11.082031 C 5.304688 -10.066406 5.765625 -9.085938 6.3125 -8.152344 C 6.832031 -7.265625 7.292969 -6.625 7.695312 -6.222656 C 8.53125 -5.382812 9.671875 -4.597656 11.113281 -3.855469 C 12.460938 -3.160156 13.90625 -2.777344 15.449219 -2.703125 L 15.320312 -0.0703125 L 15.320312 -2.707031 L 24.667969 -2.707031 C 26.378906 -2.707031 27.691406 -2.894531 28.613281 -3.277344 C 29.722656 -3.738281 30.828125 -4.308594 31.925781 -4.980469 C 32.746094 -5.488281 33.53125 -6.109375 34.285156 -6.84375 C 34.980469 -7.523438 35.570312 -8.304688 36.046875 -9.1875 C 36.683594 -10.371094 37.199219 -11.550781 37.597656 -12.722656 C 37.949219 -13.761719 38.125 -15.046875 38.125 -16.585938 Z M 21.046875 -17.921875 C 21.046875 -17.183594 21.09375 -16.601562 21.179688 -16.171875 C 21.207031 -16.035156 21.234375 -15.929688 21.265625 -15.859375 C 21.253906 -15.890625 21.222656 -15.933594 21.167969 -15.996094 C 21.132812 -16.039062 21.082031 -16.058594 21.011719 -16.058594 L 21.023438 -16.058594 C 21 -16.054688 20.976562 -16.050781 20.945312 -16.042969 C 20.832031 -16.011719 20.722656 -15.957031 20.613281 -15.878906 C 20.40625 -15.726562 20.277344 -15.566406 20.230469 -15.394531 C 20.402344 -16.003906 20.484375 -16.449219 20.484375 -16.726562 C 20.484375 -18.539062 20.519531 -20.441406 20.59375 -22.441406 C 20.660156 -24.347656 20.671875 -25.925781 20.628906 -27.171875 L 23.261719 -27.265625 L 20.636719 -27.039062 C 20.558594 -27.925781 20.429688 -28.65625 20.253906 -29.222656 C 20.328125 -28.984375 20.488281 -28.789062 20.734375 -28.632812 C 20.832031 -28.570312 20.929688 -28.527344 21.019531 -28.503906 L 21.011719 -28.496094 C 20.9375 -28.496094 20.875 -28.492188 20.828125 -28.488281 C 20.820312 -28.484375 20.816406 -28.484375 20.816406 -28.484375 C 20.824219 -28.488281 20.835938 -28.492188 20.851562 -28.496094 C 21.015625 -28.554688 21.160156 -28.667969 21.289062 -28.832031 C 21.222656 -28.746094 21.175781 -28.636719 21.15625 -28.503906 C 21.082031 -28.054688 21.046875 -27.714844 21.046875 -27.476562 Z M 15.777344 -17.921875 L 15.777344 -27.476562 C 15.777344 -27.992188 15.835938 -28.613281 15.949219 -29.335938 C 16.117188 -30.371094 16.515625 -31.292969 17.152344 -32.097656 C 18.03125 -33.210938 19.316406 -33.769531 21.011719 -33.769531 C 21.996094 -33.769531 22.851562 -33.535156 23.574219 -33.070312 C 24.40625 -32.539062 24.976562 -31.78125 25.285156 -30.792969 C 25.578125 -29.863281 25.777344 -28.761719 25.886719 -27.496094 L 25.894531 -27.429688 L 25.894531 -27.363281 C 25.945312 -25.988281 25.933594 -24.285156 25.859375 -22.253906 C 25.792969 -20.316406 25.757812 -18.476562 25.757812 -16.726562 C 25.757812 -15.972656 25.609375 -15.054688 25.308594 -13.984375 C 25.027344 -12.964844 24.488281 -12.171875 23.695312 -11.601562 C 22.941406 -11.058594 22.046875 -10.789062 21.011719 -10.789062 C 19.445312 -10.789062 18.152344 -11.394531 17.132812 -12.605469 C 16.230469 -13.683594 15.777344 -15.453125 15.777344 -17.921875 Z M 15.777344 -17.921875 "/></g></g></g></g><g fill="#ffffff" fill-opacity="1"><g transform="translate(1.827611, 56.934404)"><g><path d="M 40.765625 -30.578125 C 40.765625 -29.359375 40.765625 -27.878906 40.765625 -26.140625 C 40.765625 -24.410156 40.765625 -22.675781 40.765625 -20.9375 C 40.765625 -19.207031 40.765625 -17.757812 40.765625 -16.59375 C 40.765625 -14.757812 40.539062 -13.1875 40.09375 -11.875 C 39.644531 -10.5625 39.070312 -9.25 38.375 -7.9375 C 37.757812 -6.8125 37.007812 -5.816406 36.125 -4.953125 C 35.238281 -4.085938 34.300781 -3.347656 33.3125 -2.734375 C 32.09375 -1.984375 30.863281 -1.347656 29.625 -0.828125 C 28.382812 -0.316406 26.734375 -0.0625 24.671875 -0.0625 C 24.390625 -0.0625 23.765625 -0.0625 22.796875 -0.0625 C 21.835938 -0.0625 20.796875 -0.0625 19.671875 -0.0625 C 18.546875 -0.0625 17.550781 -0.0625 16.6875 -0.0625 C 15.820312 -0.0625 15.367188 -0.0625 15.328125 -0.0625 C 13.398438 -0.15625 11.59375 -0.632812 9.90625 -1.5 C 8.21875 -2.375 6.859375 -3.328125 5.828125 -4.359375 C 5.265625 -4.921875 4.664062 -5.738281 4.03125 -6.8125 C 3.40625 -7.894531 2.878906 -9.019531 2.453125 -10.1875 C 2.035156 -11.363281 1.828125 -12.394531 1.828125 -13.28125 C 1.828125 -13.9375 1.828125 -15.015625 1.828125 -16.515625 C 1.828125 -18.015625 1.828125 -19.675781 1.828125 -21.5 C 1.828125 -23.332031 1.828125 -25.09375 1.828125 -26.78125 C 1.828125 -28.46875 1.828125 -29.828125 1.828125 -30.859375 C 1.828125 -32.867188 2.140625 -34.632812 2.765625 -36.15625 C 3.398438 -37.675781 4.140625 -38.882812 4.984375 -39.78125 C 6.484375 -41.375 7.898438 -42.4375 9.234375 -42.96875 C 10.578125 -43.507812 12.207031 -43.898438 14.125 -44.140625 C 14.175781 -44.179688 14.691406 -44.191406 15.671875 -44.171875 C 16.660156 -44.148438 17.867188 -44.140625 19.296875 -44.140625 C 20.722656 -44.140625 22.148438 -44.140625 23.578125 -44.140625 C 25.003906 -44.140625 26.164062 -44.140625 27.0625 -44.140625 C 28.882812 -44.140625 30.566406 -43.878906 32.109375 -43.359375 C 33.660156 -42.847656 35.066406 -41.984375 36.328125 -40.765625 C 37.640625 -39.546875 38.707031 -37.988281 39.53125 -36.09375 C 40.351562 -34.195312 40.765625 -32.359375 40.765625 -30.578125 Z M 18.40625 -17.921875 C 18.40625 -16.097656 18.648438 -14.890625 19.140625 -14.296875 C 19.640625 -13.710938 20.265625 -13.421875 21.015625 -13.421875 C 21.953125 -13.421875 22.535156 -13.84375 22.765625 -14.6875 C 23.003906 -15.53125 23.125 -16.210938 23.125 -16.734375 C 23.125 -18.503906 23.15625 -20.375 23.21875 -22.34375 C 23.289062 -24.3125 23.304688 -25.953125 23.265625 -27.265625 C 23.171875 -28.347656 23.003906 -29.265625 22.765625 -30.015625 C 22.535156 -30.765625 21.953125 -31.140625 21.015625 -31.140625 C 20.171875 -31.140625 19.570312 -30.914062 19.21875 -30.46875 C 18.863281 -30.019531 18.640625 -29.503906 18.546875 -28.921875 C 18.453125 -28.335938 18.40625 -27.859375 18.40625 -27.484375 C 18.40625 -27.015625 18.40625 -26.25 18.40625 -25.1875 C 18.40625 -24.132812 18.40625 -22.953125 18.40625 -21.640625 C 18.40625 -20.328125 18.40625 -19.085938 18.40625 -17.921875 Z M 18.40625 -17.921875 "/></g></g></g></g></g></svg>